<svg width="24" height="25" viewBox="0 0 24 25" fill="none" xmlns="http://www.w3.org/2000/svg">
<path d="M22 12.5083C22 18.0311 17.5228 22.5083 12 22.5083C6.47715 22.5083 2 18.0311 2 12.5083C2 6.98545 6.47715 2.5083 12 2.5083C17.5228 2.5083 22 6.98545 22 12.5083Z" stroke="#6366F1" stroke-width="1.5"/>
<path d="M14.7102 10.5694C14.6111 9.80674 13.7354 8.57452 12.1608 8.57449C10.3312 8.57446 9.56136 9.58776 9.40515 10.0944C9.16145 10.7721 9.21019 12.1654 11.3547 12.3173C14.0354 12.5073 15.1093 12.8237 14.9727 14.4643C14.836 16.1048 13.3417 16.4593 12.1608 16.4212C10.9798 16.3833 9.04764 15.8408 8.97266 14.3816M11.9734 7.50635V8.57812M11.9734 16.4114V17.5063" stroke="#6366F1" stroke-width="1.5" stroke-linecap="round"/>
</svg>
