<svg width="133" height="103" viewBox="0 0 133 103" fill="none" xmlns="http://www.w3.org/2000/svg">
<path d="M41.127 24.4395L49.6319 76.144H109.262L113.281 32.1893L41.127 24.4395Z" fill="#F5F5F5"/>
<path d="M100.275 40.7524C100.69 40.7892 101.094 40.9081 101.463 41.1022C101.832 41.2963 102.159 41.5618 102.424 41.8831C102.69 42.2045 102.889 42.5753 103.01 42.9742C103.131 43.3731 103.171 43.792 103.129 44.2067L100.983 65.4825C100.927 66.0029 100.674 66.4822 100.276 66.8222C99.8778 67.1622 99.3649 67.3372 98.8421 67.3113C98.3193 67.2855 97.8262 67.0608 97.4637 66.6832C97.1012 66.3056 96.8968 65.8037 96.8923 65.2803L96.8477 43.8975C96.8468 43.4599 96.9371 43.0269 97.1128 42.6261C97.2886 42.2253 97.5458 41.8655 97.8683 41.5696C98.1907 41.2737 98.5713 41.0482 98.9857 40.9075C99.4001 40.7668 99.8393 40.714 100.275 40.7524Z" fill="#A9AFC4"/>
<path style="mix-blend-mode:multiply" d="M112.002 46.1836L109.261 76.1457H93.5355C88.3362 62.5276 97.5784 47.664 112.002 46.1836Z" fill="url(#paint0_linear_926_12453)"/>
<path d="M83.5715 101.157C86.5235 101.157 88.9165 98.7637 88.9165 95.8117C88.9165 92.8598 86.5235 90.4668 83.5715 90.4668C80.6196 90.4668 78.2266 92.8598 78.2266 95.8117C78.2266 98.7637 80.6196 101.157 83.5715 101.157Z" fill="#5E6175"/>
<path d="M83.5709 97.7374C84.6347 97.7374 85.4972 96.875 85.4972 95.8111C85.4972 94.7472 84.6347 93.8848 83.5709 93.8848C82.507 93.8848 81.6445 94.7472 81.6445 95.8111C81.6445 96.875 82.507 97.7374 83.5709 97.7374Z" fill="#F5F5F5"/>
<path d="M30.9446 101.157C33.8965 101.157 36.2895 98.7637 36.2895 95.8117C36.2895 92.8598 33.8965 90.4668 30.9446 90.4668C27.9926 90.4668 25.5996 92.8598 25.5996 95.8117C25.5996 98.7637 27.9926 101.157 30.9446 101.157Z" fill="#5E6175"/>
<path d="M30.9439 97.7374C32.0078 97.7374 32.8702 96.875 32.8702 95.8111C32.8702 94.7472 32.0078 93.8848 30.9439 93.8848C29.88 93.8848 29.0176 94.7472 29.0176 95.8111C29.0176 96.875 29.88 97.7374 30.9439 97.7374Z" fill="#F5F5F5"/>
<path d="M30.9439 102.05C29.7092 102.05 28.5022 101.684 27.4756 100.998C26.449 100.312 25.6489 99.3369 25.1764 98.1962C24.7039 97.0555 24.5802 95.8002 24.8211 94.5893C25.062 93.3783 25.6566 92.266 26.5296 91.3929C27.4027 90.5198 28.515 89.9253 29.726 89.6844C30.937 89.4435 32.1922 89.5672 33.3329 90.0397C34.4736 90.5121 35.4486 91.3123 36.1345 92.3389C36.8205 93.3655 37.1866 94.5725 37.1866 95.8072C37.1866 97.4629 36.5289 99.0507 35.3582 100.221C34.1874 101.392 32.5996 102.05 30.9439 102.05ZM30.9439 91.3481C30.062 91.3481 29.1999 91.6096 28.4666 92.0996C27.7333 92.5896 27.1617 93.286 26.8242 94.1008C26.4867 94.9155 26.3984 95.8121 26.5705 96.6771C26.7425 97.5421 27.1672 98.3366 27.7908 98.9602C28.4145 99.5838 29.209 100.009 30.074 100.181C30.9389 100.353 31.8355 100.264 32.6503 99.9268C33.4651 99.5893 34.1615 99.0178 34.6515 98.2845C35.1415 97.5512 35.403 96.6891 35.403 95.8072C35.4006 94.6261 34.9298 93.4942 34.0938 92.6599C33.2578 91.8256 32.125 91.357 30.9439 91.357V91.3481Z" fill="#5E6175"/>
<path d="M83.5806 102.05C82.3459 102.05 81.139 101.684 80.1123 100.998C79.0857 100.312 78.2856 99.3369 77.8131 98.1962C77.3406 97.0555 77.217 95.8002 77.4578 94.5893C77.6987 93.3783 78.2933 92.266 79.1663 91.3929C80.0394 90.5198 81.1518 89.9253 82.3627 89.6844C83.5737 89.4435 84.8289 89.5672 85.9696 90.0397C87.1103 90.5121 88.0853 91.3123 88.7713 92.3389C89.4572 93.3655 89.8233 94.5725 89.8233 95.8072C89.8233 97.4629 89.1656 99.0507 87.9949 100.221C86.8241 101.392 85.2363 102.05 83.5806 102.05ZM83.5806 91.3481C82.6987 91.3481 81.8366 91.6096 81.1033 92.0996C80.37 92.5896 79.7985 93.286 79.461 94.1008C79.1235 94.9155 79.0351 95.8121 79.2072 96.6771C79.3793 97.5421 79.804 98.3366 80.4276 98.9602C81.0512 99.5838 81.8457 100.009 82.7107 100.181C83.5757 100.353 84.4722 100.264 85.287 99.9268C86.1018 99.5893 86.7982 99.0178 87.2882 98.2845C87.7782 97.5512 88.0397 96.6891 88.0397 95.8072C88.0373 94.6261 87.5665 93.4942 86.7305 92.6599C85.8945 91.8256 84.7617 91.357 83.5806 91.357V91.3481Z" fill="#5E6175"/>
<path d="M33.5859 7.52734L37.3711 3.74215L38.6322 5.00318L34.847 8.78837L33.5859 7.52734Z" fill="#5E6175"/>
<path d="M28.9199 0H30.7036V5.35388H28.9199V0Z" fill="#5E6175"/>
<path d="M37.1758 11.3535H42.5297V13.1372H37.1758V11.3535Z" fill="#5E6175"/>
<path d="M41.1267 24.4395H17.8711L31.8251 76.144H49.6317L41.1267 24.4395Z" fill="#F5F5F5"/>
<path d="M110.076 77.0398H48.8737L40.0566 23.4297L114.25 31.3966L110.076 77.0398ZM50.3898 75.2562H108.447L112.312 32.984L42.197 25.4511L50.3898 75.2562Z" fill="#5E6175"/>
<path d="M50.6805 77.0381H31.1408L16.6934 23.5469H41.8723L50.6805 77.0381ZM32.5083 75.2544H48.5818L40.3681 25.3305H19.0359L32.5083 75.2544Z" fill="#5E6175"/>
<path d="M43.1922 25.3311H17.4901L6.16992 13.5234H32.0624L43.1922 25.3311ZM18.2511 23.5475H39.0601L31.2924 15.3071H10.3525L18.2511 23.5475Z" fill="#5E6175"/>
<path d="M29.5 17.4744H3.10518C2.31002 17.4496 1.55572 17.1163 1.00202 16.545C0.448309 15.9738 0.138672 15.2095 0.138672 14.4139C0.138672 13.6184 0.448309 12.8541 1.00202 12.2828C1.55572 11.7116 2.31002 11.3783 3.10518 11.3535H29.5C30.2952 11.3783 31.0495 11.7116 31.6032 12.2828C32.1569 12.8541 32.4665 13.6184 32.4665 14.4139C32.4665 15.2095 32.1569 15.9738 31.6032 16.545C31.0495 17.1163 30.2952 17.4496 29.5 17.4744ZM3.10518 13.1253C2.77722 13.1411 2.46792 13.2825 2.2414 13.5202C2.01489 13.7579 1.88854 14.0737 1.88854 14.402C1.88854 14.7304 2.01489 15.0462 2.2414 15.2839C2.46792 15.5216 2.77722 15.663 3.10518 15.6788H29.5C29.828 15.663 30.1373 15.5216 30.3638 15.2839C30.5903 15.0462 30.7167 14.7304 30.7167 14.402C30.7167 14.0737 30.5903 13.7579 30.3638 13.5202C30.1373 13.2825 29.828 13.1411 29.5 13.1253H3.10518Z" fill="#5E6175"/>
<path d="M29.5002 12.2344H3.10541C2.54415 12.2552 2.01282 12.4927 1.6231 12.8972C1.23337 13.3016 1.01562 13.8413 1.01563 14.403C1.01562 14.9646 1.23337 15.5044 1.6231 15.9088C2.01282 16.3132 2.54415 16.5508 3.10541 16.5716H29.5002C30.0615 16.5508 30.5928 16.3132 30.9825 15.9088C31.3723 15.5044 31.59 14.9646 31.59 14.403C31.59 13.8413 31.3723 13.3016 30.9825 12.8972C30.5928 12.4927 30.0615 12.2552 29.5002 12.2344Z" fill="#5E6175"/>
<path d="M50.5239 96.7039H30.9336V76.1445H32.7172V94.9203H48.7402V76.1445H50.5239V96.7039Z" fill="#5E6175"/>
<path d="M101.72 96.7039H48.7402V76.1445H50.5239V94.9203H101.72V96.7039Z" fill="#5E6175"/>
<path d="M49.6321 101.157C52.584 101.157 54.977 98.7637 54.977 95.8117C54.977 92.8598 52.584 90.4668 49.6321 90.4668C46.6801 90.4668 44.2871 92.8598 44.2871 95.8117C44.2871 98.7637 46.6801 101.157 49.6321 101.157Z" fill="#5E6175"/>
<path d="M101.722 101.157C104.674 101.157 107.067 98.7637 107.067 95.8117C107.067 92.8598 104.674 90.4668 101.722 90.4668C98.77 90.4668 96.377 92.8598 96.377 95.8117C96.377 98.7637 98.77 101.157 101.722 101.157Z" fill="#5E6175"/>
<path d="M49.6314 102.052C48.3967 102.052 47.1897 101.686 46.1631 101C45.1365 100.314 44.3364 99.3388 43.8639 98.1981C43.3914 97.0574 43.2677 95.8022 43.5086 94.5912C43.7495 93.3803 44.3441 92.2679 45.2171 91.3949C46.0902 90.5218 47.2025 89.9272 48.4135 89.6864C49.6245 89.4455 50.8797 89.5691 52.0204 90.0416C53.1611 90.5141 54.1361 91.3142 54.822 92.3409C55.508 93.3675 55.8741 94.5744 55.8741 95.8091C55.8741 97.4648 55.2164 99.0527 54.0457 100.223C52.8749 101.394 51.2871 102.052 49.6314 102.052ZM49.6314 91.35C48.7495 91.35 47.8874 91.6116 47.1541 92.1015C46.4208 92.5915 45.8492 93.2879 45.5117 94.1027C45.1742 94.9175 45.0859 95.8141 45.258 96.6791C45.43 97.544 45.8547 98.3386 46.4783 98.9622C47.102 99.5858 47.8965 100.01 48.7615 100.183C49.6264 100.355 50.523 100.266 51.3378 99.9288C52.1526 99.5913 52.849 99.0198 53.339 98.2865C53.829 97.5532 54.0905 96.6911 54.0905 95.8091C54.0881 94.6281 53.6173 93.4962 52.7813 92.6618C51.9453 91.8275 50.8125 91.359 49.6314 91.359V91.35Z" fill="#5E6175"/>
<path d="M101.713 102.052C100.479 102.052 99.2718 101.686 98.2452 101C97.2186 100.314 96.4184 99.3388 95.9459 98.1981C95.4734 97.0574 95.3498 95.8022 95.5907 94.5912C95.8315 93.3803 96.4261 92.2679 97.2992 91.3949C98.1722 90.5218 99.2846 89.9272 100.496 89.6864C101.707 89.4455 102.962 89.5691 104.102 90.0416C105.243 90.5141 106.218 91.3142 106.904 92.3409C107.59 93.3675 107.956 94.5744 107.956 95.8091C107.956 97.4648 107.298 99.0527 106.128 100.223C104.957 101.394 103.369 102.052 101.713 102.052ZM101.713 91.35C100.832 91.35 99.9694 91.6116 99.2361 92.1015C98.5028 92.5915 97.9313 93.2879 97.5938 94.1027C97.2563 94.9175 97.168 95.8141 97.34 96.6791C97.5121 97.544 97.9368 98.3386 98.5604 98.9622C99.184 99.5858 99.9785 100.01 100.844 100.183C101.708 100.355 102.605 100.266 103.42 99.9288C104.235 99.5913 104.931 99.0198 105.421 98.2865C105.911 97.5532 106.173 96.6911 106.173 95.8091C106.17 94.6281 105.699 93.4962 104.863 92.6618C104.027 91.8275 102.895 91.359 101.713 91.359V91.35Z" fill="#5E6175"/>
<path d="M49.6138 97.7374C50.6777 97.7374 51.5402 96.875 51.5402 95.8111C51.5402 94.7472 50.6777 93.8848 49.6138 93.8848C48.5499 93.8848 47.6875 94.7472 47.6875 95.8111C47.6875 96.875 48.5499 97.7374 49.6138 97.7374Z" fill="#F5F5F5"/>
<path d="M101.723 97.7374C102.787 97.7374 103.65 96.875 103.65 95.8111C103.65 94.7472 102.787 93.8848 101.723 93.8848C100.659 93.8848 99.7969 94.7472 99.7969 95.8111C99.7969 96.875 100.659 97.7374 101.723 97.7374Z" fill="#F5F5F5"/>
<path d="M60.179 36.8735C61.083 36.9537 61.924 37.3697 62.5365 38.0394C63.1489 38.709 63.4883 39.5838 63.4877 40.4913V65.2541C63.464 65.7663 63.252 66.2517 62.8924 66.6173C62.5328 66.9828 62.0509 67.2027 61.5391 67.2347C61.0273 67.2668 60.5217 67.1087 60.1193 66.791C59.7169 66.4732 59.446 66.018 59.3586 65.5127L56.2551 40.9461C56.1873 40.408 56.2408 39.8615 56.4118 39.3468C56.5828 38.832 56.8669 38.3621 57.2433 37.9715C57.6196 37.581 58.0786 37.2796 58.5866 37.0896C59.0946 36.8996 59.6388 36.8257 60.179 36.8735Z" fill="#A9AFC4"/>
<path d="M81.2671 39.038C81.7443 39.0806 82.2084 39.2169 82.6329 39.439C83.0574 39.6611 83.4339 39.9647 83.7409 40.3325C84.048 40.7003 84.2795 41.1249 84.4222 41.5823C84.565 42.0396 84.6161 42.5206 84.5728 42.9977L82.5276 65.4269C82.5157 65.9788 82.2852 66.5034 81.8866 66.8853C81.4879 67.2671 80.954 67.475 80.4021 67.4632C79.8502 67.4514 79.3256 67.2208 78.9437 66.8222C78.5618 66.4236 78.3539 65.8896 78.3658 65.3377L77.3015 42.852C77.2752 42.3311 77.361 41.8106 77.5531 41.3257C77.7452 40.8408 78.0391 40.4027 78.415 40.0412C78.791 39.6796 79.2401 39.403 79.7322 39.2299C80.2242 39.0568 80.7476 38.9914 81.2671 39.038Z" fill="#A9AFC4"/>
<path d="M3.74805 100.268H101.723V102.051H3.74805V100.268Z" fill="#5E6175"/>
<path d="M21.9821 74.4048C21.5365 74.4048 21.0978 74.2952 20.7046 74.0856C20.3115 73.8759 19.976 73.5727 19.7278 73.2027C19.4795 72.8327 19.3262 72.4072 19.2814 71.9639C19.2365 71.5206 19.3015 71.0731 19.4705 70.6608C19.6396 70.2486 19.9076 69.8843 20.2508 69.6001C20.594 69.316 21.0018 69.1207 21.4384 69.0315C21.8749 68.9423 22.3267 68.962 22.7539 69.0887C23.181 69.2155 23.5704 69.4455 23.8876 69.7584C24.2724 70.1359 24.5359 70.6195 24.6445 71.1474C24.7531 71.6753 24.7018 72.2237 24.4973 72.7224C24.2928 73.221 23.9443 73.6474 23.4963 73.9471C23.0483 74.2468 22.5211 74.4061 21.9821 74.4048ZM21.9821 70.7602C21.7978 70.7602 21.6177 70.8149 21.4646 70.9174C21.3114 71.0199 21.1922 71.1656 21.1219 71.336C21.0517 71.5063 21.0336 71.6937 21.07 71.8744C21.1064 72.055 21.1956 72.2208 21.3263 72.3507C21.457 72.4806 21.6234 72.5687 21.8043 72.604C21.9851 72.6392 22.1724 72.6199 22.3423 72.5486C22.5122 72.4772 22.6571 72.3571 22.7587 72.2033C22.8602 72.0495 22.9138 71.869 22.9126 71.6847C22.911 71.439 22.8123 71.2038 22.638 71.0306C22.4636 70.8574 22.2279 70.7602 21.9821 70.7602Z" fill="#5E6175"/>
<path d="M12.5457 88.5018C11.8144 88.5018 11.0994 88.2853 10.491 87.8795C9.88252 87.4738 9.40777 86.8971 9.12657 86.222C8.84537 85.5469 8.7703 84.8037 8.91083 84.086C9.05135 83.3683 9.40118 82.7083 9.91623 82.1891C10.4313 81.6699 11.0885 81.3148 11.805 81.1686C12.5216 81.0223 13.2654 81.0914 13.9427 81.3672C14.62 81.643 15.2005 82.1132 15.6111 82.7184C16.0216 83.3236 16.2438 84.0368 16.2497 84.768C16.2532 85.2568 16.1601 85.7415 15.9755 86.1942C15.791 86.6468 15.5188 87.0585 15.1745 87.4055C14.8302 87.7526 14.4208 88.0281 13.9696 88.2162C13.5184 88.4044 13.0345 88.5014 12.5457 88.5018ZM12.5457 82.8804C12.1652 82.8804 11.7934 82.9934 11.4773 83.2051C11.1611 83.4167 10.915 83.7176 10.7701 84.0693C10.6252 84.4211 10.5881 84.808 10.6634 85.1809C10.7387 85.5538 10.9231 85.896 11.1931 86.1639C11.4632 86.4319 11.8068 86.6136 12.1802 86.686C12.5537 86.7584 12.9403 86.7183 13.2909 86.5706C13.6416 86.423 13.9405 86.1746 14.1497 85.8568C14.3589 85.539 14.469 85.1663 14.4661 84.7859C14.4614 84.2794 14.2571 83.7952 13.8975 83.4384C13.538 83.0817 13.0522 82.8811 12.5457 82.8804Z" fill="#5E6175"/>
<path d="M114.294 85.7102C123.928 85.7102 131.737 77.9002 131.737 68.2662C131.737 58.6322 123.928 50.8223 114.294 50.8223C104.66 50.8223 96.8496 58.6322 96.8496 68.2662C96.8496 77.9002 104.66 85.7102 114.294 85.7102Z" fill="#F5F5F5"/>
<path d="M114.293 86.6052C110.666 86.6058 107.12 85.5308 104.104 83.516C101.087 81.5013 98.7365 78.6374 97.348 75.2865C95.9595 71.9356 95.5959 68.2482 96.3032 64.6906C97.0105 61.133 98.7568 57.8651 101.321 55.3001C103.886 52.7351 107.154 50.9882 110.711 50.2803C114.269 49.5725 117.956 49.9355 121.307 51.3234C124.658 52.7113 127.523 55.0619 129.538 58.0777C131.553 61.0936 132.629 64.6393 132.629 68.2665C132.624 73.1283 130.691 77.7896 127.253 81.2277C123.816 84.6657 119.155 86.5997 114.293 86.6052ZM114.293 51.7144C111.018 51.7138 107.817 52.6843 105.094 54.5031C102.371 56.322 100.249 58.9075 98.9956 61.9327C97.7422 64.9579 97.4141 68.2868 98.0528 71.4985C98.6915 74.7101 100.268 77.6602 102.584 79.9757C104.899 82.2911 107.849 83.8679 111.061 84.5066C114.273 85.1453 117.601 84.8172 120.627 83.5638C123.652 82.3104 126.237 80.1881 128.056 77.4651C129.875 74.7422 130.846 71.541 130.845 68.2665C130.84 63.8783 129.094 59.6714 125.991 56.5684C122.888 53.4655 118.681 51.7199 114.293 51.7144Z" fill="#5E6175"/>
<path d="M104.92 72.7695L118.791 58.8982L123.489 63.5955L109.617 77.4669L104.92 72.7695Z" fill="#D9488F"/>
<path d="M104.922 63.5957L109.619 58.8984L123.491 72.7697L118.793 77.467L104.922 63.5957Z" fill="#D9488F"/>
<defs>
<linearGradient id="paint0_linear_926_12453" x1="92.0729" y1="61.1632" x2="112.002" y2="61.1632" gradientUnits="userSpaceOnUse">
<stop stop-color="#CACFDD"/>
<stop offset="1" stop-color="#EEF0F1"/>
</linearGradient>
</defs>
</svg>
