<svg width="63" height="21" viewBox="0 0 63 21" fill="none" xmlns="http://www.w3.org/2000/svg">
<path d="M26.8236 12.1025H0.986328V20.7098H26.8236V12.1025Z" fill="#84B740"/>
<path d="M26.8236 0.357422H0.986328V8.9724H26.8236V0.357422Z" fill="#259BD6"/>
<path d="M52.6608 18.9603L52.5457 18.9833C52.1468 19.06 52.001 19.0907 51.7095 19.0907C51.0344 19.0907 50.2366 18.7455 50.2366 17.1192C50.2366 16.283 50.3747 15.1706 51.6328 15.1706H51.6405C51.8553 15.186 52.1008 15.209 52.561 15.3471L52.6608 15.3778V18.9603ZM52.8679 10.8516L52.6608 10.89V13.8972L52.4767 13.8435L52.423 13.8281C52.2158 13.7668 51.7402 13.6287 51.2799 13.6287C48.7637 13.6287 48.2344 15.5312 48.2344 17.1268C48.2344 19.3132 49.4618 20.5713 51.6021 20.5713C52.5073 20.5713 53.1748 20.4792 53.8498 20.2568C54.4712 20.0573 54.6937 19.7735 54.6937 19.1674V10.5371C54.0953 10.6445 53.4739 10.7519 52.8679 10.8516Z" fill="#27292D"/>
<path d="M60.141 19.0145L60.0336 19.0452L59.65 19.1449C59.2895 19.237 58.9673 19.2907 58.7218 19.2907C58.1311 19.2907 57.7782 18.9992 57.7782 18.5005C57.7782 18.1783 57.9239 17.6336 58.8905 17.6336H60.141V19.0145ZM59.2588 13.5908C58.484 13.5908 57.6861 13.7289 56.6965 14.0358L56.0521 14.2275L56.2669 15.6851L56.896 15.478C57.5557 15.2632 58.3766 15.1251 58.9903 15.1251C59.2664 15.1251 60.1103 15.1251 60.1103 16.038V16.4369H58.9366C56.7963 16.4369 55.8066 17.1197 55.8066 18.5849C55.8066 19.8353 56.7195 20.5871 58.2538 20.5871C58.7294 20.5871 59.3892 20.4951 59.9569 20.357L59.9876 20.3493L60.0182 20.357L60.21 20.3877C60.8084 20.4951 61.4298 20.6025 62.0358 20.7176V15.9306C62.0358 14.381 61.0999 13.5908 59.2588 13.5908Z" fill="#27292D"/>
<path d="M45.2347 19.0145L45.1273 19.0452L44.7438 19.1449C44.3832 19.237 44.0687 19.2907 43.8155 19.2907C43.2248 19.2907 42.8719 18.9992 42.8719 18.5005C42.8719 18.1783 43.0177 17.6336 43.9766 17.6336H45.2271V19.0145H45.2347ZM44.3602 13.5908C43.5777 13.5908 42.7876 13.7289 41.7979 14.0358L41.1535 14.2275L41.3683 15.6851L41.9974 15.478C42.6571 15.2632 43.478 15.1251 44.0917 15.1251C44.3679 15.1251 45.2117 15.1251 45.2117 16.038V16.4369H44.038C41.8977 16.4369 40.9004 17.1197 40.9004 18.5849C40.9004 19.8353 41.8133 20.5871 43.3552 20.5871C43.8309 20.5871 44.4906 20.4951 45.0583 20.357L45.089 20.3493L45.1197 20.357L45.3038 20.3877C45.9098 20.4951 46.5235 20.6025 47.1296 20.7252V15.9383C47.1372 14.3733 46.2013 13.5908 44.3602 13.5908Z" fill="#27292D"/>
<path d="M37.1567 13.6063C36.1824 13.6063 35.3769 13.9285 35.0778 14.0666L35.001 14.1049L34.932 14.0512C34.5177 13.7521 33.9117 13.5986 33.0679 13.5986C32.3237 13.5986 31.6256 13.706 30.8662 13.9285C30.2141 14.128 29.9609 14.4425 29.9609 15.0332V20.5029H32.0015V15.4474L32.1013 15.4168C32.5155 15.2787 32.761 15.2557 32.9988 15.2557C33.5895 15.2557 33.8887 15.5702 33.8887 16.1839V20.5106H35.8986V16.0995C35.8986 15.8387 35.8449 15.6853 35.8372 15.6546L35.7682 15.5242L35.9063 15.4628C36.2131 15.3247 36.5507 15.2557 36.9036 15.2557C37.3101 15.2557 37.7934 15.4168 37.7934 16.1839V20.5106H39.7957V15.9844C39.7957 14.3811 38.9365 13.6063 37.1567 13.6063Z" fill="#27292D"/>
<path d="M58.6362 5.97289C58.337 5.97289 57.8384 5.9422 57.4472 5.86549L57.3321 5.84247V2.88898C57.3321 2.6435 57.2861 2.49007 57.2784 2.46706L57.217 2.34432L57.3474 2.29062C57.3781 2.27527 57.4088 2.2676 57.4472 2.25226L57.4702 2.23691C57.5162 2.22157 57.5622 2.20623 57.6083 2.19089C57.6313 2.18322 57.6466 2.17554 57.662 2.17554C58.1146 2.0528 58.5288 2.06814 58.7129 2.0528H58.7206C59.9711 2.0528 60.1168 3.16515 60.1168 4.00134C60.1091 5.62767 59.3036 5.97289 58.6362 5.97289ZM58.6286 0.357422C58.6132 0.357422 58.5902 0.357422 58.5749 0.357422C57.4011 0.357422 56.1967 0.679622 55.7671 1.30868C55.537 1.61553 55.4066 1.9991 55.3989 2.45171V5.49726C55.3989 5.75809 55.3452 5.85781 55.3375 5.88083L55.2685 6.01124H51.5632V3.89394H51.5555C51.5095 1.66156 50.19 0.434136 48.2798 0.434136H48.0574H46.4157C46.339 0.978805 46.2776 1.36238 46.2009 1.90705H48.0574C49.0316 1.90705 49.5456 2.73556 49.5456 4.00901V6.14166L49.4152 6.07261C49.3922 6.06494 49.2311 6.01124 48.9779 6.01124H45.7713C45.7099 6.41783 45.6332 6.94715 45.5488 7.47648H55.4066C55.7441 7.40744 56.1354 7.34607 56.4729 7.29237C56.9715 7.53785 57.8998 7.66827 58.5365 7.66827C60.6768 7.66827 62.0653 6.23371 62.0653 4.02435C62.0577 1.838 60.7152 0.40345 58.6286 0.357422Z" fill="#27292D"/>
<path d="M41.3453 8.37363H41.4374C43.5777 8.37363 44.575 7.66786 44.575 5.92646C44.575 4.67602 43.6621 3.67874 42.1278 3.67874H40.1562C39.5655 3.67874 39.2126 3.34119 39.2126 2.77351C39.2126 2.38994 39.3584 1.91432 40.325 1.91432H44.6363C44.7284 1.3543 44.7744 1.00142 44.8588 0.441406H40.3787C38.2921 0.441406 37.2411 1.31595 37.2411 2.77351C37.2411 4.21573 38.154 4.96753 39.6883 4.96753H41.6598C42.2505 4.96753 42.6034 5.43549 42.6034 5.92646C42.6034 6.24865 42.4576 6.91607 41.4987 6.91607H41.1689L34.8553 6.90072H33.7046C32.7303 6.90072 32.0476 6.34838 32.0476 5.06726V4.18505C32.0476 2.85023 32.5769 2.02171 33.7046 2.02171H35.5764C35.6608 1.45403 35.7145 1.09348 35.7912 0.556477H33.4591H33.2366C31.3264 0.556477 30.007 1.8376 29.9609 4.06998V4.15436V5.06726C30.007 7.29964 31.3264 8.36596 33.2366 8.36596H33.4591H35.1008L38.5222 8.37363H40.5628H41.3453Z" fill="#27292D"/>
</svg>
