<svg width="96" height="16" viewBox="0 0 96 16" fill="none" xmlns="http://www.w3.org/2000/svg">
<path d="M11.7075 2.17396C11.0617 1.51831 10.3572 1.02257 9.59407 0.697402C8.83624 0.366909 8.01437 0.201662 7.1498 0.201662C5.26589 0.201662 3.66484 0.921287 2.3413 2.3552C1.0231 3.79445 0.366665 5.63349 0.361328 7.88297C0.361328 10.0525 1.03911 11.8702 2.40534 13.3255C3.76624 14.786 5.3833 15.5163 7.24586 15.5163C8.07841 15.5163 8.85225 15.3671 9.56205 15.0685C10.2772 14.77 10.987 14.2796 11.6968 13.6026V15.1432H15.3419V0.585462H11.7021V2.17396H11.7075ZM10.7415 10.9694C9.99434 11.7689 9.04971 12.1687 7.90763 12.1687C6.8029 12.1687 5.87429 11.7583 5.1218 10.9427C4.3693 10.1271 3.99038 9.09301 3.99038 7.82967C3.99038 6.57699 4.36396 5.54819 5.10045 4.74861C5.84227 3.94903 6.77088 3.54924 7.89162 3.54924C9.03904 3.54924 9.989 3.9437 10.7362 4.72729C11.4833 5.51621 11.7288 6.41174 11.7235 7.68574C11.7341 8.98639 11.4887 10.1698 10.7415 10.9694ZM36.257 2.17396C35.6112 1.51831 34.9067 1.02257 34.1489 0.697402C33.3857 0.366909 32.5692 0.201662 31.6993 0.201662C29.8207 0.201662 28.2143 0.921287 26.8961 2.3552C25.5779 3.79445 24.9215 5.63349 24.9162 7.88297C24.9162 10.0525 25.5939 11.8702 26.9602 13.3255C28.3211 14.786 29.9381 15.5163 31.806 15.5163C32.6386 15.5163 33.4124 15.3671 34.1169 15.0685C34.832 14.77 35.5418 14.2796 36.2516 13.6026V15.1432H39.8967V0.585462H36.257V2.17396ZM35.291 10.9694C34.5438 11.7689 33.5939 12.1687 32.4625 12.1687C31.3577 12.1687 30.4291 11.7583 29.6713 10.9427C28.9188 10.1271 28.5399 9.09301 28.5399 7.82967C28.5399 6.57699 28.9081 5.54819 29.6499 4.74861C30.3918 3.94903 31.3204 3.54924 32.4411 3.54924C33.5885 3.54924 34.5332 3.9437 35.2856 4.72729C36.0328 5.51621 36.273 6.41174 36.273 7.68574C36.2836 8.98639 36.0435 10.1698 35.291 10.9694ZM61.8365 0.937276C61.0519 0.457528 60.15 0.217653 59.1147 0.217653C58.1167 0.217653 57.1987 0.441538 56.3555 0.889304C55.5123 1.33707 54.8078 1.99273 54.2261 2.8616C53.7832 1.99806 53.1961 1.33707 52.4703 0.889304C51.7391 0.436208 50.9226 0.212324 50.0153 0.212324C49.1188 0.212324 48.2862 0.3829 47.5284 0.724055C46.7652 1.06521 46.0768 1.58227 45.4523 2.27524V0.585462H41.8019L41.7966 15.1485H45.4417V8.68788C45.4417 7.29128 45.5644 6.26782 45.8099 5.61749C46.0554 4.96717 46.429 4.4661 46.92 4.10362C47.4163 3.74647 47.966 3.56524 48.5744 3.56524C49.1188 3.56524 49.5831 3.70916 49.9673 3.99701C50.3516 4.28486 50.6398 4.71663 50.8319 5.29766C51.024 5.87869 51.1201 6.8222 51.1201 8.12285L51.1147 15.1538H54.7651V8.59726C54.7705 7.20599 54.8879 6.19852 55.128 5.57485C55.3682 4.94584 55.7418 4.45544 56.2328 4.09829C56.7238 3.74114 57.2895 3.56524 57.9192 3.56524C58.7411 3.56524 59.3548 3.85841 59.7658 4.43944C60.1767 5.0258 60.3848 6.13989 60.3848 7.78169L60.3795 15.1432H64.0246L64.0299 6.6143C64.0299 4.86589 63.8591 3.60255 63.5176 2.82429C63.1867 2.05136 62.621 1.42236 61.8365 0.937276ZM76.7636 10.8574C75.787 11.8276 74.6235 12.3127 73.2626 12.3127C72.1259 12.3127 71.1919 11.9981 70.4608 11.3798C69.7297 10.7615 69.2814 9.92457 69.1106 8.87445L80.8089 8.87978L80.825 8.18681C80.825 5.78807 80.1098 3.85842 78.6795 2.39252C77.2493 0.931949 75.392 0.201664 73.1025 0.196333C70.9518 0.196333 69.1586 0.926617 67.7337 2.39785C66.3034 3.86374 65.5936 5.70811 65.5936 7.93095C65.5936 10.1005 66.3087 11.9022 67.7337 13.3468C69.1586 14.7914 71.0158 15.511 73.2893 15.511C74.757 15.511 76.0165 15.2498 77.0892 14.7274C78.1512 14.205 79.0691 13.4001 79.8323 12.3073L76.7636 10.8574ZM70.6156 4.16225C71.3841 3.59722 72.2753 3.32003 73.2893 3.32003C74.2286 3.32003 75.0505 3.57057 75.755 4.07164C76.4648 4.57804 76.9397 5.22303 77.1799 6.02794L69.2867 6.02261C69.687 5.13241 70.1353 4.51407 70.6156 4.16225ZM89.4653 7.44054L94.3966 0.580133H90.2338L87.3786 4.55139L84.5127 0.580133H80.2913L85.2705 7.47785L79.7629 15.1432H83.9203L87.3466 10.367L90.7942 15.1432H95.021L89.4653 7.44054ZM24.1263 0.137695C23.4539 0.137695 22.8615 0.265628 22.3705 0.510833C21.8848 0.750708 21.3298 1.19847 20.7 1.8488V0.585462H17.2204V15.1485H20.8655V7.5738C20.8655 4.79659 21.634 3.40532 23.4912 3.40532C23.8114 3.40532 24.1423 3.47462 24.4732 3.59722C25.0709 2.59508 25.7647 1.6569 26.5386 0.788022C25.7007 0.366909 24.8948 0.137695 24.1263 0.137695Z" fill="#E12626"/>
</svg>
