<svg width="59" height="20" viewBox="0 0 59 20" fill="none" xmlns="http://www.w3.org/2000/svg">
<path d="M29.3512 0.398319L25.4296 18.7326H20.6861L24.6081 0.398319H29.3512ZM49.3065 12.237L51.8029 5.35209L53.2396 12.237H49.3065ZM54.6004 18.7326H58.9864L55.1547 0.398319H51.1089C50.1972 0.398319 49.4285 0.926974 49.0883 1.74222L41.9713 18.7326H46.9527L47.9415 15.9945H54.026L54.6004 18.7326ZM42.2183 12.7471C42.2389 7.90835 35.5293 7.64032 35.5742 5.47827C35.5886 4.82137 36.2155 4.12159 37.5853 3.94262C38.2645 3.8552 40.1387 3.78427 42.2632 4.76323L43.0941 0.873779C41.9531 0.460999 40.4847 0.0634766 38.6575 0.0634766C33.9685 0.0634766 30.6699 2.55418 30.6435 6.12363C30.6134 8.76319 32.9998 10.2349 34.794 11.1141C36.6439 12.0126 37.2637 12.5887 37.2546 13.3916C37.2418 14.6217 35.7796 15.1664 34.4179 15.1871C32.032 15.2242 30.6489 14.5421 29.5466 14.0283L28.6856 18.0476C29.7957 18.5557 31.8411 18.9977 33.959 19.0204C38.9441 19.0204 42.2034 16.559 42.2183 12.7471ZM22.5735 0.398319L14.8882 18.7326H9.87507L6.09283 4.10055C5.86355 3.20077 5.66356 2.87005 4.96624 2.48985C3.82564 1.87047 1.94276 1.29109 0.287109 0.930686L0.399275 0.398319H8.47013C9.49816 0.398319 10.4231 1.08244 10.6586 2.26676L12.6565 12.877L17.5905 0.398319H22.5735Z" fill="#1434CB"/>
</svg>
