<svg width="42" height="51" viewBox="0 0 42 51" fill="none" xmlns="http://www.w3.org/2000/svg">
<path d="M2.21021 34.9256H39.8333C40.59 34.9256 41.2806 35.1804 41.8243 35.5937V2.73954C41.8243 1.63756 40.8692 0.749023 39.6937 0.749023H2.35716C1.18171 0.749023 0.226562 1.63756 0.226562 2.73954V35.5937C0.762867 35.1735 1.45349 34.9256 2.21021 34.9256Z" fill="#005B47"/>
<path d="M35.9834 4.92303C35.9834 4.59936 35.6968 4.34445 35.3295 4.34445C34.9621 4.34445 34.6756 4.59925 34.6756 4.92303C34.6756 5.25361 34.9547 5.50161 35.3295 5.50161C35.7042 5.50852 35.9834 5.25373 35.9834 4.92303ZM33.1989 9.75817H37.5849V8.38758C37.5849 8.01564 37.5114 7.76765 37.3351 7.56792C37.1441 7.35437 36.8429 7.24425 36.4315 7.24425H33.1989V9.75817ZM24.7501 12.5753C24.5371 12.5753 24.3314 12.5477 24.1183 12.4926L23.9934 12.465L24.2505 11.5765L24.3681 11.604C24.5371 11.6454 24.5959 11.6523 24.7134 11.6523C25.1468 11.6523 25.2864 11.5145 25.2864 10.7156V5.78404H26.2782V9.75817H32.1998V5.77713H33.1915V6.32127H36.4241C37.1808 6.32127 37.673 6.50729 38.0845 6.94799C38.393 7.27858 38.5694 7.78827 38.5694 8.39438V10.688H26.1753V10.7362C26.2121 11.4387 26.0725 11.9415 25.7639 12.2446C25.4334 12.5753 24.9704 12.5753 24.7501 12.5753ZM23.1337 11.9141C23.1337 11.5904 22.8546 11.3424 22.4946 11.3424C22.1419 11.3424 21.8628 11.5972 21.8628 11.9141C21.8628 12.2378 22.1346 12.4789 22.4946 12.4789C22.8619 12.4789 23.1337 12.2378 23.1337 11.9141ZM21.3411 11.9141C21.3411 11.5904 21.062 11.3424 20.7093 11.3424C20.3567 11.3424 20.0776 11.5972 20.0776 11.9141C20.0776 12.2378 20.3493 12.4789 20.7093 12.4789C21.0693 12.4789 21.3411 12.2378 21.3411 11.9141ZM15.7869 11.8934C15.7869 11.5697 15.5004 11.3217 15.133 11.3217C14.7656 11.3217 14.4791 11.5765 14.4791 11.8934C14.4791 12.2239 14.7583 12.4719 15.133 12.4719C15.5077 12.4719 15.7869 12.2309 15.7869 11.8934ZM6.2875 4.14483C6.2875 3.82796 6.00835 3.58008 5.65573 3.58008C5.30311 3.58008 5.02396 3.82807 5.02396 4.14483C5.02396 4.46851 5.29574 4.7165 5.65573 4.7165C6.01572 4.7165 6.2875 4.46851 6.2875 4.14483ZM8.07272 4.14483C8.07272 3.82796 7.79357 3.58008 7.43358 3.58008C7.08096 3.58008 6.80181 3.82807 6.80181 4.14483C6.80181 4.46851 7.07359 4.7165 7.43358 4.7165C7.80095 4.7165 8.07272 4.46851 8.07272 4.14483ZM6.3536 6.70011C5.44993 6.70011 4.48016 7.2856 4.48016 8.23611C4.48016 9.28994 5.42057 9.75828 6.3536 9.75828H6.95601V6.70011H6.3536ZM6.48581 10.6812C4.27437 10.6812 3.48828 9.36562 3.48828 8.236C3.48828 6.78961 4.78868 5.77713 6.65475 5.77713H6.95601V5.35014H7.94777V9.75828H14.6407V5.77713H15.6252V9.75817H21.8627V5.77713H22.8324V10.6812H6.48581Z" fill="white"/>
<path d="M38.568 13.7871H37.5762V20.9916H38.568V13.7871ZM6.93257 17.0175V20.0755H6.33017C5.39713 20.0755 4.45673 19.6072 4.45673 18.5534C4.45673 17.6098 5.4265 17.0174 6.33017 17.0174L6.93257 17.0175ZM30.009 17.0175V20.0755H28.5543L28.5395 20.0686C27.893 19.7105 27.5183 19.1595 27.5183 18.5395C27.5183 17.5477 28.4439 17.0174 29.3182 17.0174L30.009 17.0175ZM16.3512 19.1664C16.3512 20.1238 15.5652 20.8469 14.5219 20.8469C13.5374 20.8469 12.7587 20.11 12.7587 19.1664C12.7587 18.2159 13.5301 17.472 14.5219 17.472C15.5798 17.472 16.3512 18.1883 16.3512 19.1664ZM16.5422 21.0122L16.5569 20.9984H35.7248V13.7871H34.733V20.0686H30.9935V16.0945H29.627C27.7462 16.0945 26.534 17.0519 26.534 18.5397C26.534 19.0976 26.7251 19.5866 27.0997 19.993L27.1732 20.0687H22.4711V16.0946H21.4794V20.0755H17.1668L17.1888 20.0136C17.2843 19.7519 17.3358 19.4694 17.3358 19.1802C17.3358 17.6856 16.1236 16.5491 14.5219 16.5491C12.9791 16.5491 11.7742 17.7063 11.7742 19.1802C11.7742 19.4626 11.8256 19.745 11.9137 20.0136L11.9357 20.0755H7.92434V15.6674H6.93257V16.0944H6.63131C4.76524 16.0944 3.46484 17.1069 3.46484 18.5533C3.46484 19.7379 4.29504 20.9984 6.63131 20.9984H12.5381L12.5529 21.0122C13.0746 21.5081 13.7724 21.7836 14.5145 21.7836C15.2859 21.7768 16.0279 21.5013 16.5422 21.0122ZM30.7436 14.7927C30.7436 14.4758 30.4644 14.2279 30.1045 14.2279C29.7518 14.2279 29.4727 14.4759 29.4727 14.7927C29.4727 15.1164 29.7445 15.3643 30.1045 15.3643C30.4644 15.3645 30.7436 15.1165 30.7436 14.7927ZM28.9584 14.7927C28.9584 14.4758 28.6792 14.2279 28.3266 14.2279C27.974 14.2279 27.6948 14.4759 27.6948 14.7927C27.6948 15.1164 27.9666 15.3643 28.3266 15.3643C28.6865 15.3645 28.9584 15.1165 28.9584 14.7927ZM23.4409 22.2314C23.4409 21.9077 23.1617 21.6597 22.8018 21.6597C22.4491 21.6597 22.17 21.9145 22.17 22.2314C22.17 22.555 22.4418 22.7961 22.8018 22.7961C23.169 22.7962 23.4409 22.5551 23.4409 22.2314ZM21.6483 22.2314C21.6483 21.9077 21.3692 21.6597 21.0165 21.6597C20.6639 21.6597 20.3848 21.9145 20.3848 22.2314C20.3848 22.555 20.6565 22.7961 21.0165 22.7961C21.3764 22.7962 21.6483 22.5482 21.6483 22.2314ZM6.26395 14.4552C6.26395 14.1383 5.9848 13.8904 5.63217 13.8904C5.27955 13.8904 5.0004 14.1384 5.0004 14.4552C5.0004 14.7789 5.27218 15.0269 5.63217 15.0269C5.99217 15.027 6.26395 14.7859 6.26395 14.4552ZM7.41014 15.027C7.05015 15.027 6.77837 14.779 6.77837 14.4553C6.77837 14.1384 7.05752 13.8905 7.41014 13.8905C7.77014 13.8905 8.04929 14.1385 8.04929 14.4553C8.04929 14.7859 7.77739 15.027 7.41014 15.027Z" fill="white"/>
<path d="M38.5693 24.1046H37.5775V31.3091H38.5693V24.1046ZM19.8497 27.8721H22.972C23.3835 27.8721 23.692 27.9823 23.8757 28.1957C24.0446 28.3955 24.1255 28.6435 24.1255 29.0154V30.386H19.8423V27.8719H19.8497V27.8721ZM31.5016 29.4838C31.5016 30.4413 30.7156 31.1644 29.6723 31.1644C28.6878 31.1644 27.9091 30.4274 27.9091 29.4838C27.9091 28.5333 28.6805 27.7895 29.6723 27.7895C30.7376 27.7895 31.5016 28.4989 31.5016 29.4838ZM31.7001 31.3228L31.7148 31.309H35.7262V24.1045H34.7344V30.386H32.3247L32.3467 30.324C32.4422 30.0623 32.4936 29.7799 32.4936 29.4906C32.4936 27.996 31.2815 26.8596 29.6798 26.8596C28.137 26.8596 26.9321 28.0167 26.9321 29.4906C26.9321 29.7731 26.9762 30.0554 27.0716 30.324L27.0936 30.386H25.1174V29.0154C25.1174 28.4093 24.9484 27.8996 24.6324 27.569C24.2209 27.1282 23.7287 26.9423 22.972 26.9423H19.8497V26.3981H18.8579V30.3792H16.4775V24.0977H15.4858V31.3022H27.6962L27.7109 31.316C28.2326 31.8119 28.9305 32.0874 29.6726 32.0874C30.4438 32.0943 31.1784 31.8119 31.7001 31.3228ZM22.5312 25.551C22.5312 25.2273 22.2447 24.9724 21.8773 24.9724C21.5099 24.9724 21.2234 25.2272 21.2234 25.551C21.2234 25.8815 21.5026 26.1295 21.8773 26.1295C22.252 26.1364 22.5312 25.8884 22.5312 25.551ZM12.8407 25.0964C12.8407 24.7728 12.5542 24.5179 12.1868 24.5179C11.8195 24.5179 11.533 24.7726 11.533 25.0964C11.533 25.427 11.8121 25.675 12.1868 25.675C12.5616 25.6818 12.8407 25.427 12.8407 25.0964ZM6.95589 27.328V30.3862H6.35348C5.42045 30.3862 4.48005 29.9179 4.48005 28.864C4.48005 27.9204 5.44981 27.328 6.35348 27.328H6.95589ZM13.0023 27.328V30.3862H11.5476L11.5328 30.3793C10.8863 30.0212 10.5116 29.4701 10.5116 28.8502C10.5116 28.1133 11.1434 27.328 12.3116 27.328H13.0023ZM13.9942 31.3091V26.4051H12.6277C10.7469 26.4051 9.53469 27.3625 9.53469 28.8502C9.53469 29.4081 9.72574 29.8971 10.1004 30.3035L10.1738 30.3793H7.95514V25.9711H6.95601V26.3981H6.65475C4.78868 26.3981 3.48828 27.4106 3.48828 28.857C3.48828 30.0417 4.31848 31.3022 6.65475 31.3022H13.9942V31.3091ZM6.28738 24.7726C6.28738 24.4558 6.00823 24.2079 5.65561 24.2079C5.30299 24.2079 5.02384 24.4559 5.02384 24.7726C5.02384 25.0963 5.29562 25.3443 5.65561 25.3443C6.0156 25.3443 6.28738 25.0964 6.28738 24.7726ZM7.43346 25.3443C7.07347 25.3443 6.80169 25.0963 6.80169 24.7726C6.80169 24.4558 7.08084 24.2079 7.43346 24.2079C7.79346 24.2079 8.07261 24.4559 8.07261 24.7726C8.07261 25.0964 7.80083 25.3443 7.43346 25.3443Z" fill="white"/>
<path d="M39.6933 50.9042H2.34934C1.1739 50.9042 0.21875 50.0087 0.21875 48.9067V37.9623C0.21875 36.8603 1.1739 35.9648 2.34934 35.9648H39.6933C40.8687 35.9648 41.8239 36.8603 41.8239 37.9623V48.9067C41.8239 50.0087 40.8687 50.9042 39.6933 50.9042Z" fill="#D4A007"/>
<path d="M9.35696 46.2151L11.8769 38.2598H15.4034C14.2352 41.5589 11.7226 48.6257 11.6932 48.6257H7.02069C6.99132 48.6257 4.47874 41.5589 3.31055 38.2598H6.83701L9.35696 46.2151Z" fill="white"/>
<path d="M38.7314 38.2598H27.0352L27.9168 40.636H31.649V48.6189H35.0065V40.636H38.7314V38.2598Z" fill="white"/>
<path d="M26.8653 42.0543L26.5053 41.3242C24.6686 42.4538 21.627 45.8425 21.627 45.8425L20.5103 44.6647L20.1062 45.9458L20.0547 46.1318C20.4808 46.7035 21.6416 48.6182 21.6416 48.6182C24.338 44.0379 26.8653 42.0543 26.8653 42.0543Z" fill="#005B47"/>
<path d="M21.2236 40.6636L22.3697 44.3002C23.0677 43.577 23.9933 42.661 24.875 41.9102C24.1476 39.8714 23.5672 38.2598 23.5526 38.2598H18.8801C18.8507 38.2598 16.3381 45.3265 15.1699 48.6257H18.6964L21.2236 40.6636Z" fill="white"/>
<path d="M23.252 47.0611L23.7441 48.6178H27.2706C26.8371 47.4055 26.2274 45.6836 25.625 43.9893C24.9638 44.7331 24.1336 45.7524 23.252 47.0611Z" fill="white"/>
</svg>
