<svg width="51" height="39" viewBox="0 0 51 39" fill="none" xmlns="http://www.w3.org/2000/svg">
<path fill-rule="evenodd" clip-rule="evenodd" d="M35.0449 0.334961C43.4625 0.334961 50.2863 7.15954 50.2863 15.5771C50.2863 23.9947 43.4625 30.8186 35.0449 30.8186C31.4821 30.8186 28.2047 29.5963 25.6094 27.5478C29.1461 24.7563 31.416 20.432 31.416 15.5771C31.416 10.7223 29.1461 6.3972 25.6094 3.60645C28.2047 1.55796 31.4821 0.334961 35.0449 0.334961Z" fill="#F79E1B"/>
<path fill-rule="evenodd" clip-rule="evenodd" d="M16.175 0.334961C19.7378 0.334961 23.0145 1.55796 25.6098 3.60645C22.0738 6.3972 19.8032 10.7223 19.8032 15.5771C19.8032 20.432 22.0738 24.7563 25.6098 27.5478C23.0152 29.5963 19.7378 30.8186 16.175 30.8186C7.75743 30.8186 0.933594 23.9947 0.933594 15.5771C0.933594 7.15954 7.75743 0.334961 16.175 0.334961Z" fill="#EB001B"/>
<path fill-rule="evenodd" clip-rule="evenodd" d="M25.6113 27.5478C22.0753 24.7563 19.8047 20.432 19.8047 15.5771C19.8047 10.7223 22.0753 6.3972 25.6113 3.60645C29.1481 6.3972 31.418 10.7223 31.418 15.5771C31.418 20.432 29.1481 24.7563 25.6113 27.5478Z" fill="#F14F1B"/>
<path fill-rule="evenodd" clip-rule="evenodd" d="M3.37395 34.9754V34.5139H2.48828V38.5567H3.41185V36.1307C3.41185 35.6522 3.78335 35.2451 4.37479 35.2451C5.07471 35.2451 5.26046 35.7756 5.26046 36.477V38.5567H6.14613V36.4391C6.14613 34.8074 7.99401 34.9612 7.99401 36.1307V38.5567H8.91832V35.9383C8.91832 34.265 6.71603 33.895 5.91506 35.0913C5.62825 34.881 5.5651 34.398 4.45206 34.398C4.21059 34.398 3.98842 34.485 3.82273 34.5778C3.72614 34.6313 3.64812 34.6826 3.57457 34.7532C3.48095 34.8431 3.46163 34.9115 3.37395 34.9754Z" fill="#231D20"/>
<path fill-rule="evenodd" clip-rule="evenodd" d="M43.6121 36.6704C43.6121 36.2603 43.6455 35.8576 43.9687 35.5641C44.7199 34.8835 45.9994 35.3494 45.9994 36.4007V36.6704C45.9994 37.3013 45.4347 37.8214 44.8053 37.8214C44.176 37.8214 43.6121 37.3013 43.6121 36.6704ZM45.9607 34.9377C45.6331 34.7178 45.4986 34.3983 44.6902 34.3983C43.5043 34.3983 42.6684 35.3642 42.6699 36.5159C42.6729 38.4477 44.6515 39.1469 45.7081 38.343C45.8196 38.2583 45.8619 38.1996 45.9607 38.1334V38.557H46.8843V32.974C46.8843 32.7837 46.5811 32.858 46.0759 32.858C45.9043 32.858 45.9585 33.098 45.96 33.2816L45.9607 34.9377Z" fill="#231D20"/>
<path fill-rule="evenodd" clip-rule="evenodd" d="M35.4471 36.6696C35.4471 36.1309 35.5385 35.5751 36.1537 35.3359C36.9837 35.0134 37.8337 35.564 37.8337 36.3999V36.6696C37.8337 37.3004 37.2697 37.8205 36.6404 37.8205C36.0111 37.8205 35.4471 37.3004 35.4471 36.6696ZM36.5253 38.6713C37.3017 38.6713 37.4971 38.3317 37.7958 38.1326V38.5561H38.7194V34.5134H37.7958V34.9369C37.4681 34.717 37.3336 34.3975 36.5253 34.3975C34.6647 34.3975 33.869 36.68 35.0519 38.0263C35.3379 38.3518 35.9286 38.6713 36.5253 38.6713Z" fill="#231D20"/>
<path fill-rule="evenodd" clip-rule="evenodd" d="M11.8437 37.8242C10.2121 37.8242 10.1771 35.2445 11.8437 35.2445C13.1581 35.2445 13.4583 37.1488 12.3646 37.6905C12.2702 37.7373 11.9596 37.8242 11.8437 37.8242ZM9.6875 36.3999V36.6696C9.6875 38.0561 11.1743 39.0732 12.4218 38.5175C12.7821 38.357 12.7888 38.247 12.9605 38.1326V38.5561H13.8848V34.5134H12.9605V34.9369C12.6514 34.7296 12.5622 34.3975 11.6513 34.3975C11.0851 34.3975 10.562 34.6939 10.2737 34.983C9.98768 35.269 9.6875 35.8396 9.6875 36.3999Z" fill="#231D20"/>
<path fill-rule="evenodd" clip-rule="evenodd" d="M24.7431 35.2059C25.0663 35.2059 25.3256 35.2891 25.5032 35.486C25.6243 35.619 25.7774 35.9325 25.7826 36.1688H23.7422C23.7422 35.6428 24.2111 35.2059 24.7431 35.2059ZM22.7793 36.3999C22.7793 38.6512 24.8025 39.0755 26.1555 38.351C26.2871 38.2805 26.3985 38.1631 26.5144 38.1326C26.4944 37.8941 26.1927 37.6756 26.1295 37.4394C26.03 37.4624 24.81 38.3087 24.0201 37.5077C23.7549 37.2395 23.8128 37.0894 23.7036 36.862H26.7069C26.7121 36.6406 26.7656 36.6614 26.724 36.3835C26.6957 36.1918 26.7017 36.0834 26.6593 35.908C26.2373 34.1426 24.2297 34.0371 23.3366 34.9926C23.0594 35.2898 22.7793 35.8463 22.7793 36.3999Z" fill="#231D20"/>
<path fill-rule="evenodd" clip-rule="evenodd" d="M14.8862 35.5528C14.8862 35.9697 14.8751 36.1532 15.2221 36.4876C15.8982 37.1407 17.3887 36.7424 17.3887 37.4007C17.3887 37.9558 16.2504 37.9134 15.708 37.7343C15.5869 37.6942 15.5163 37.6645 15.4123 37.6065C15.2956 37.5404 15.2481 37.4743 15.1173 37.4394C15.0103 37.6422 14.7436 38.033 14.7324 38.1712C14.8624 38.2054 14.9724 38.305 15.0809 38.3614C15.7912 38.7315 16.9488 38.7924 17.6852 38.3897C18.5092 37.9387 18.7016 36.5463 17.2899 36.1911C16.7668 36.0596 15.8105 36.073 15.8105 35.668C15.8105 35.3262 16.2289 35.2059 16.5803 35.2059C17.0841 35.2059 17.5187 35.3768 17.8508 35.5528C17.9816 35.3054 18.1072 35.0639 18.2365 34.821C17.5826 34.4755 17.2557 34.3975 16.4265 34.3975C15.711 34.3975 14.8862 34.8507 14.8862 35.5528Z" fill="#231D20"/>
<path fill-rule="evenodd" clip-rule="evenodd" d="M19.7377 34.398C19.7377 34.5912 19.4092 34.5139 18.8906 34.5139V35.3223H19.7377V37.4399C19.7377 38.6391 21.0684 38.9839 22.2401 38.3642C22.2216 38.1376 22.064 37.8292 22.0091 37.5937C21.7958 37.6115 20.6226 38.2958 20.6226 37.055V35.3223H22.0863V34.5139H20.6226V33.2812H19.7377V34.398Z" fill="#231D20"/>
<path fill-rule="evenodd" clip-rule="evenodd" d="M30.4414 36.439C30.4414 38.645 32.6727 39.1124 33.8882 38.3069C33.9975 38.2349 33.9254 38.246 34.0606 38.2096C34.0495 38.0721 33.7812 37.6783 33.6757 37.4785C33.513 37.4918 33.2552 37.6962 32.9914 37.7571C30.7186 38.2832 30.9013 34.5317 33.1809 35.3549C33.3927 35.4307 33.4736 35.5444 33.6757 35.592C33.7382 35.3564 33.999 35.1246 34.0606 34.8601C33.9313 34.7917 33.9247 34.7635 33.8043 34.6929C32.9803 34.2137 31.7402 34.3058 31.0663 34.9849C30.6925 35.3624 30.4414 35.8453 30.4414 36.439Z" fill="#231D20"/>
<path fill-rule="evenodd" clip-rule="evenodd" d="M40.7216 34.9374V34.5139H39.8359V38.5567H40.7602V36.0535C40.7602 35.7354 40.9824 35.4197 41.2209 35.3208C41.5085 35.2012 41.906 35.2458 42.146 35.361C42.2396 35.1656 42.3607 34.7495 42.4157 34.5139C41.9877 34.3081 41.2945 34.3512 40.9118 34.7428C40.8383 34.8186 40.8137 34.8758 40.7216 34.9374Z" fill="#231D20"/>
<path fill-rule="evenodd" clip-rule="evenodd" d="M28.5165 34.9369V34.5134H27.6309V38.5561H28.5165V36.2453C28.5165 35.7029 28.7848 35.2445 29.3249 35.2445C29.5672 35.2445 29.7514 35.3158 29.9409 35.3604C29.952 35.2267 30.1564 34.6256 30.2106 34.5134C30.0486 34.4354 29.744 34.3975 29.5174 34.3975C29.0158 34.3975 28.7498 34.6679 28.5165 34.9369Z" fill="#231D20"/>
<path fill-rule="evenodd" clip-rule="evenodd" d="M48.3462 38.6715C48.02 38.6715 48.0379 38.4151 48.0379 38.2866C48.0379 38.0355 48.6152 37.93 48.6152 38.3639C48.6152 38.5281 48.497 38.6715 48.3462 38.6715ZM48.2444 38.7488H48.1917C48.0683 38.748 47.9242 38.5571 47.9034 38.4218C47.8239 37.8943 48.7311 37.7762 48.7311 38.3252C48.7311 38.7302 48.5037 38.748 48.2444 38.7488Z" fill="#231D20"/>
<path fill-rule="evenodd" clip-rule="evenodd" d="M48.2695 38.2484H48.3846V38.3257H48.2695V38.2484ZM48.1543 38.5568H48.2695V38.4408C48.3958 38.5255 48.323 38.5419 48.5005 38.5568C48.3311 38.3041 48.4931 38.5352 48.5005 38.2098L48.1543 38.1719V38.5568Z" fill="#231D20"/>
</svg>
