<svg width="38" height="38" viewBox="0 0 38 38" fill="none" xmlns="http://www.w3.org/2000/svg">
<path d="M20.2571 0.201172H18.1297C6.44084 0.201172 0.556641 2.01044 0.556641 18.8287C0.556641 36.2412 7.50158 37.4533 19.1904 37.4533C30.8792 37.4533 37.78 36.6957 37.78 18.8287C37.78 0.839912 31.887 0.201172 20.2512 0.201172" fill="#ED3012"/>
<path d="M30.4261 21.71C30.3503 22.1179 30.1422 22.4888 29.8344 22.7642C29.5266 23.0396 29.1366 23.2039 28.7259 23.2311C25.4258 23.451 21.9047 23.5728 18.1862 23.549C15.1748 23.5312 12.2931 23.4183 9.55878 23.2371C9.12686 23.2079 8.71853 23.0279 8.40395 22.7281C8.08937 22.4282 7.88822 22.0273 7.83507 21.5942C7.71462 20.6324 7.65557 19.664 7.65829 18.6946C7.66111 17.7837 7.71915 16.874 7.83212 15.9702C7.88651 15.534 8.09194 15.1312 8.41215 14.8328C8.73236 14.5344 9.14679 14.3596 9.58236 14.3392C12.4719 14.1926 15.4833 14.1134 18.6164 14.1016C22.1227 14.1016 25.4876 14.1817 28.6994 14.3422C29.1187 14.3643 29.5183 14.5286 29.8334 14.8085C30.1483 15.0884 30.3604 15.4674 30.4349 15.8841C30.5992 16.798 30.686 17.7242 30.6942 18.6529C30.7021 19.6783 30.6122 20.702 30.4261 21.71Z" stroke="white" stroke-width="1.01716" stroke-miterlimit="10"/>
<path d="M27.1419 18.7059C27.1419 18.8993 27.085 19.0882 26.9786 19.249C26.872 19.4097 26.7206 19.535 26.5435 19.609C26.3664 19.6829 26.1714 19.7023 25.9834 19.6646C25.7954 19.6269 25.6226 19.5338 25.487 19.3971C25.3515 19.2604 25.2591 19.0863 25.2218 18.8966C25.1843 18.707 25.2035 18.5105 25.2769 18.3319C25.3503 18.1533 25.4745 18.0006 25.634 17.8933C25.7934 17.7859 25.9808 17.7285 26.1725 17.7285C26.4296 17.7285 26.6762 17.8315 26.858 18.0148C27.0398 18.1981 27.1419 18.4467 27.1419 18.7059Z" fill="white"/>
<path d="M27.1419 18.7059C27.1419 18.8993 27.085 19.0882 26.9786 19.249C26.872 19.4097 26.7206 19.535 26.5435 19.609C26.3664 19.6829 26.1714 19.7023 25.9834 19.6646C25.7954 19.6269 25.6226 19.5338 25.487 19.3971C25.3515 19.2604 25.2591 19.0863 25.2218 18.8967C25.1843 18.707 25.2035 18.5105 25.2769 18.3319C25.3503 18.1533 25.4745 18.0006 25.634 17.8933C25.7934 17.7859 25.9808 17.7285 26.1725 17.7285C26.4296 17.7285 26.6762 17.8315 26.858 18.0148C27.0398 18.1981 27.1419 18.4467 27.1419 18.7059Z" stroke="white" stroke-width="0.959968" stroke-miterlimit="10"/>
</svg>
