<svg width="25" height="25" viewBox="0 0 25 25" fill="none" xmlns="http://www.w3.org/2000/svg">
<path d="M12.0742 22.1084C17.5971 22.1084 22.0742 17.6312 22.0742 12.1084C22.0742 6.58555 17.5971 2.1084 12.0742 2.1084C6.55137 2.1084 2.07422 6.58555 2.07422 12.1084C2.07422 17.6312 6.55137 22.1084 12.0742 22.1084Z" stroke="#141B34" stroke-width="1.5"/>
<path d="M8.07422 12.1084C8.07422 18.1084 12.0742 22.1084 12.0742 22.1084C12.0742 22.1084 16.0742 18.1084 16.0742 12.1084C16.0742 6.1084 12.0742 2.1084 12.0742 2.1084C12.0742 2.1084 8.07422 6.1084 8.07422 12.1084Z" stroke="#141B34" stroke-width="1.5" stroke-linejoin="round"/>
<path d="M21.0742 15.1084H3.07422" stroke="#141B34" stroke-width="1.5" stroke-linecap="round" stroke-linejoin="round"/>
<path d="M21.0742 9.1084H3.07422" stroke="#141B34" stroke-width="1.5" stroke-linecap="round" stroke-linejoin="round"/>
</svg>
