<svg width="25" height="25" viewBox="0 0 25 25" fill="none" xmlns="http://www.w3.org/2000/svg">
<path d="M22.25 17.065V13.065C22.25 7.54216 17.7728 3.065 12.25 3.065C6.72715 3.065 2.25 7.54215 2.25 13.065V17.065M7.75 21.065C6.36929 21.065 5.25 19.9457 5.25 18.565V15.565C5.25 14.1843 6.36929 13.065 7.75 13.065C9.13071 13.065 10.25 14.1843 10.25 15.565V18.565C10.25 19.9457 9.13071 21.065 7.75 21.065ZM16.75 21.065C15.3693 21.065 14.25 19.9457 14.25 18.565V15.565C14.25 14.1843 15.3693 13.065 16.75 13.065C18.1307 13.065 19.25 14.1843 19.25 15.565V18.565C19.25 19.9457 18.1307 21.065 16.75 21.065Z" stroke="#D9488F" stroke-width="1.5" stroke-linecap="round" stroke-linejoin="round"/>
</svg>
