<svg width="25" height="25" viewBox="0 0 25 25" fill="none" xmlns="http://www.w3.org/2000/svg">
<path d="M9.34 9.065C9.5751 8.39667 10.0392 7.83311 10.65 7.47414C11.2608 7.11516 11.9789 6.98394 12.6772 7.10371C13.3755 7.22349 14.0088 7.58653 14.4651 8.12853C14.9213 8.67053 15.1711 9.35652 15.17 10.065C15.17 12.065 12.17 13.065 12.17 13.065M12.25 17.065H12.26M22.25 12.065C22.25 17.5879 17.7728 22.065 12.25 22.065C6.72715 22.065 2.25 17.5879 2.25 12.065C2.25 6.54215 6.72715 2.065 12.25 2.065C17.7728 2.065 22.25 6.54215 22.25 12.065Z" stroke="#D9488F" stroke-width="1.5" stroke-linecap="round" stroke-linejoin="round"/>
</svg>
