<svg width="99" height="59" viewBox="0 0 99 59" fill="none" xmlns="http://www.w3.org/2000/svg">
<path d="M49.4999 24.301C49.7487 24.1935 49.9037 24.0202 49.9939 23.7845C50.084 23.5245 50.1056 23.2021 50.1056 22.7896V19.2502C50.1056 18.4079 49.9506 17.6314 49.6585 16.9415C49.3665 16.2274 48.9843 15.6034 48.4686 15.0626C47.953 14.5011 47.3689 14.0261 46.6946 13.6587C46.0204 13.2704 45.3028 12.9688 44.5384 12.7747C43.7524 12.5806 42.9447 12.4731 42.1586 12.4731C41.3726 12.4731 40.5433 12.5598 39.7572 12.7331C38.9712 12.9064 38.2284 13.1422 37.5577 13.5096L37.4027 13.5963V8.393C37.4027 7.3357 36.8402 6.79492 35.7404 6.79492C34.6407 6.79492 34.0566 7.3357 34.0566 8.393L34.0782 21.3024H31.1576V13.7038C31.1576 13.163 31.0458 12.7747 30.7537 12.4939C30.4617 12.2131 30.0578 12.1057 29.517 12.1057C28.392 12.1057 27.8331 12.6465 27.8331 13.7038V21.3024H10.5148C9.70716 21.3024 9.07615 21.195 8.60741 20.98C8.1567 20.7651 7.86463 20.4635 7.66271 20.0718C7.48243 19.7044 7.39228 19.2745 7.39228 18.7753C7.39228 18.2761 7.46079 17.8047 7.66271 17.3922C7.843 16.9831 8.1567 16.6365 8.62905 16.3765C9.10139 16.1165 9.72879 15.9882 10.5148 15.9882H12.3105C12.8946 15.9882 13.3201 15.8357 13.5905 15.6C13.8826 15.34 14.016 14.9725 14.016 14.4352C14.016 13.8979 13.8826 13.527 13.5905 13.2462C13.2985 12.9654 12.8946 12.8371 12.3105 12.8371H10.4031C9.25644 12.8371 8.26847 12.9896 7.43916 13.2912C6.63148 13.572 5.97884 13.9811 5.48486 14.5219C4.99088 15.0384 4.6303 15.645 4.40675 16.3557C4.18319 17.0455 4.09305 17.7804 4.09305 18.5812C4.09305 19.382 4.18319 20.1342 4.40675 20.8483C4.47526 21.084 4.58704 21.3232 4.69881 21.5624C3.55219 21.8224 2.65437 22.2973 2.00534 23.008C0.523389 24.5818 0.162817 26.6305 0.905595 29.1784H4.70242C4.25531 28.8318 3.98488 28.3153 3.91637 27.6254C3.84786 26.998 3.93801 26.4156 4.1868 25.8748C4.59064 24.9458 5.55697 24.4709 7.06056 24.4709H29.2249C29.8776 24.4709 30.3463 24.2975 30.6636 23.9509C30.7537 23.885 30.8222 23.7775 30.8872 23.6701C31.1287 24.2005 31.6119 24.457 32.3475 24.4674H32.3907H48.3821C48.8761 24.4674 49.2583 24.4015 49.5035 24.2941M46.7848 21.292H37.3991V18.6367C37.446 18.2692 37.5541 17.9225 37.7597 17.621C38.0301 17.2119 38.387 16.8652 38.8378 16.5845C39.2849 16.3037 39.8041 16.1095 40.363 15.957C40.9255 15.8045 41.5312 15.7421 42.1586 15.7421C42.7428 15.7421 43.3052 15.8288 43.8641 15.9778C44.405 16.1303 44.8954 16.3453 45.3461 16.6677C45.7968 16.9692 46.1538 17.3367 46.4026 17.7908C46.6514 18.2241 46.7848 18.7407 46.7848 19.323V21.2886V21.292ZM55.2294 8.66339V22.8693C55.2294 23.4101 55.096 23.7983 54.8039 24.0791C54.5335 24.3391 54.1296 24.4674 53.5671 24.4674C53.0046 24.4674 52.6008 24.3391 52.3304 24.0791C52.0383 23.7983 51.9049 23.4101 51.9049 22.8693V8.67033C51.9049 7.61303 52.4674 7.07225 53.5671 7.07225C54.6669 7.07225 55.2294 7.61303 55.2294 8.67033M7.37065 31.4144H2.49572C1.21569 31.4144 0.541418 31.9759 0.541418 33.2724V46.9826C0.541418 48.1925 1.16881 48.7956 2.40557 48.7956C3.64234 48.7956 4.26973 48.1925 4.26973 46.9826V42.7742H7.48243C10.897 42.7742 13.4787 40.3546 13.4787 37.1376C13.4787 33.7473 10.9187 31.4178 7.37065 31.4178M7.41392 39.2106H4.26973V34.978H7.05335C8.78049 34.978 9.68192 35.7753 9.68192 37.1134C9.68192 38.4515 8.78409 39.2072 7.41392 39.2072M24.7394 37.5675C24.7394 38.4757 23.9534 39.2938 22.8969 39.2938C22.5832 39.2938 22.2695 39.2938 22.0423 39.228C21.862 39.2072 21.7286 39.1621 21.5051 39.1621C20.6072 39.1621 19.5976 39.8762 19.5976 40.8468V47.0658C19.5976 48.2098 19.0135 48.7922 17.8236 48.7922C16.6337 48.7922 16.028 48.2098 16.028 47.0658V37.6299C16.028 36.4201 16.6337 35.8377 17.8236 35.8377C18.5195 35.8377 19.2407 36.271 19.3056 37.3075C19.6878 36.5726 21.213 35.6678 22.1793 35.6678C24.0435 35.6678 24.7394 36.6384 24.7394 37.5675ZM31.3523 30.7176C31.3523 31.8823 30.4761 32.7247 29.2646 32.7247C28.118 32.7247 27.1769 31.8407 27.1769 30.7176C27.1769 29.5944 28.1216 28.752 29.2646 28.752C30.4076 28.752 31.3523 29.6152 31.3523 30.7176ZM31.1287 37.6992V47.0485C31.1287 48.2133 30.523 48.7956 29.3331 48.7956C28.1432 48.7956 27.5374 48.2133 27.5374 47.0485V37.6992C27.5374 36.5345 28.1216 35.9729 29.3115 35.9729C30.5013 35.9729 31.1287 36.5345 31.1287 37.6992ZM44.8593 40.2263V47.0693C44.8593 48.2133 44.2536 48.7956 43.042 48.7956C41.8305 48.7956 41.2464 48.2133 41.2464 47.0693V40.8503C41.2464 39.5122 40.3702 38.8432 39.5156 38.8432C38.6178 38.8432 37.6984 39.533 37.6984 40.8503V47.0693C37.6984 48.2133 37.0926 48.7956 35.8811 48.7956C34.7345 48.7956 34.1503 48.2133 34.1503 47.0693V37.6576C34.1503 36.7078 34.7345 35.8446 35.8811 35.8446C37.0926 35.8446 37.6984 36.7078 37.6984 37.4219C38.506 36.4929 39.5156 35.803 40.9327 35.803C42.75 35.803 44.8629 36.947 44.8629 40.2298M52.3087 38.9333V44.2441C52.3087 45.1731 52.352 45.6272 52.8027 45.6272C54.0611 45.6272 54.7354 46.168 54.7354 47.312C54.7354 48.3901 54.0611 48.9759 52.8027 48.9759C49.4782 48.9759 48.7138 47.2045 48.7138 44.2475V38.8917C47.7475 38.805 47.0949 38.4827 47.0949 37.467C47.0949 36.4513 47.7475 36.1947 48.7138 36.063V35.179C48.7138 34.0351 49.298 33.4735 50.4878 33.4735C51.6777 33.4735 52.3051 34.0351 52.3051 35.179V36.063H53.3147C54.5515 36.063 55.1572 36.323 55.1572 37.4878C55.1572 38.6525 54.5731 38.9333 53.34 38.9333H52.3051H52.3087Z" fill="#390089"/>
<path d="M83.3665 3.58659L95.2221 14.9846V37.8985C95.2221 39.5694 93.8087 40.9283 92.0707 40.9283H82.8509C77.4604 40.9283 73.0758 45.1436 73.0758 50.3261V52.5031C73.0758 54.174 71.6624 55.5328 69.9244 55.5328H69.4485C67.7105 55.5328 66.2971 54.174 66.2971 52.5031V6.61982C66.2971 4.94894 67.7105 3.59006 69.4485 3.59006H83.3665M84.7367 0.407763H69.4485C65.8788 0.407763 62.9834 3.1914 62.9834 6.62329V52.5135C62.9834 55.9454 65.8788 58.7255 69.4485 58.7255H69.9244C73.4941 58.7255 76.3895 55.9419 76.3895 52.5135V50.3365C76.3895 46.9046 79.2849 44.121 82.8545 44.121H92.0743C95.644 44.121 98.5394 41.3373 98.5394 37.9054V13.6673L84.7367 0.404297V0.407763Z" fill="#390089"/>
<path d="M84.7363 0.404297L98.5318 13.6673H87.9671C86.1822 13.6673 84.7363 12.2772 84.7363 10.5613V0.404297Z" fill="#D1D3D4"/>
<path d="M81.5046 11.5943H69.7716C68.8774 11.5943 68.1562 10.8975 68.1562 10.0413C68.1562 9.18506 68.881 8.48828 69.7716 8.48828H81.5046C82.3952 8.48828 83.12 9.18506 83.12 10.0413C83.12 10.8975 82.3952 11.5943 81.5046 11.5943Z" fill="#EEDC11"/>
<path d="M91.7413 19.7388H69.7716C68.881 19.7388 68.1562 19.0421 68.1562 18.1858C68.1562 17.3296 68.881 16.6328 69.7716 16.6328H91.7413C92.6319 16.6328 93.3566 17.3296 93.3566 18.1858C93.3566 19.0421 92.6319 19.7388 91.7413 19.7388Z" fill="#D9488F"/>
<path d="M91.7413 27.8853H69.7716C68.881 27.8853 68.1562 27.1886 68.1562 26.3323C68.1562 25.4761 68.881 24.7793 69.7716 24.7793H91.7413C92.6319 24.7793 93.3566 25.4761 93.3566 26.3323C93.3566 27.1886 92.6319 27.8853 91.7413 27.8853Z" fill="#8259A5"/>
<path d="M91.7413 36.0338H69.7716C68.881 36.0338 68.1562 35.337 68.1562 34.4808C68.1562 33.6245 68.881 32.9277 69.7716 32.9277H91.7413C92.6319 32.9277 93.3566 33.6245 93.3566 34.4808C93.3566 35.337 92.6319 36.0338 91.7413 36.0338Z" fill="#6ACBE1"/>
</svg>
