<svg width="23" height="36" viewBox="0 0 23 36" fill="none" xmlns="http://www.w3.org/2000/svg">
<path d="M12.8929 2.20517L20.1011 9.13517V23.0668C20.1011 24.0827 19.2418 24.9089 18.1851 24.9089H12.5794C9.30199 24.9089 6.63618 27.4718 6.63618 30.6228V31.9464C6.63618 32.9623 5.77681 33.7885 4.72013 33.7885H4.43075C3.37408 33.7885 2.5147 32.9623 2.5147 31.9464V4.04938C2.5147 3.03348 3.37408 2.20728 4.43075 2.20728H12.8929M13.726 0.272448H4.43075C2.2604 0.272448 0.5 1.9649 0.5 4.05149V31.9527C0.5 34.0393 2.2604 35.7296 4.43075 35.7296H4.72013C6.89049 35.7296 8.65089 34.0372 8.65089 31.9527V30.6291C8.65089 28.5425 10.4113 26.8501 12.5816 26.8501H18.1873C20.3576 26.8501 22.118 25.1576 22.118 23.071V8.33426L13.726 0.27034V0.272448Z" fill="#390089"/>
<path d="M13.7261 0.27034L22.1137 8.33425H15.6904C14.6052 8.33425 13.7261 7.48908 13.7261 6.44579V0.27034Z" fill="#D1D3D4"/>
<path d="M11.7613 7.07386H4.62765C4.08396 7.07386 3.64551 6.65022 3.64551 6.12963C3.64551 5.60903 4.08615 5.18539 4.62765 5.18539H11.7613C12.3028 5.18539 12.7435 5.60903 12.7435 6.12963C12.7435 6.65022 12.3028 7.07386 11.7613 7.07386Z" fill="#EEDC11"/>
<path d="M17.9852 12.0257H4.62765C4.08615 12.0257 3.64551 11.6021 3.64551 11.0815C3.64551 10.5609 4.08615 10.1373 4.62765 10.1373H17.9852C18.5267 10.1373 18.9673 10.5609 18.9673 11.0815C18.9673 11.6021 18.5267 12.0257 17.9852 12.0257Z" fill="#D9488F"/>
<path d="M17.9852 16.9788H4.62765C4.08615 16.9788 3.64551 16.5552 3.64551 16.0346C3.64551 15.514 4.08615 15.0903 4.62765 15.0903H17.9852C18.5267 15.0903 18.9673 15.514 18.9673 16.0346C18.9673 16.5552 18.5267 16.9788 17.9852 16.9788Z" fill="#8259A5"/>
<path d="M17.9852 21.9331H4.62765C4.08615 21.9331 3.64551 21.5094 3.64551 20.9888C3.64551 20.4682 4.08615 20.0446 4.62765 20.0446H17.9852C18.5267 20.0446 18.9673 20.4682 18.9673 20.9888C18.9673 21.5094 18.5267 21.9331 17.9852 21.9331Z" fill="#6ACBE1"/>
</svg>
