<svg width="18" height="17" viewBox="0 0 18 17" fill="none" xmlns="http://www.w3.org/2000/svg">
<path d="M14.8196 5.46968L9.07483 8.6612M9.07483 8.6612L3.33009 5.46968M9.07483 8.6612L9.07485 15.0818M15.1575 11.4042V5.91824C15.1575 5.68666 15.1575 5.57087 15.1234 5.46761C15.0932 5.37625 15.0439 5.29239 14.9787 5.22163C14.905 5.14165 14.8037 5.08542 14.6013 4.97296L9.6 2.19446C9.40833 2.08797 9.31249 2.03473 9.211 2.01386C9.12117 1.99538 9.02853 1.99538 8.9387 2.01386C8.8372 2.03473 8.74137 2.08797 8.54969 2.19446L3.54839 4.97296C3.34596 5.08542 3.24474 5.14165 3.17104 5.22163C3.10584 5.29239 3.05649 5.37625 3.02631 5.46761C2.99219 5.57088 2.99219 5.68666 2.99219 5.91824V11.4042C2.99219 11.6358 2.99219 11.7516 3.02631 11.8548C3.05649 11.9462 3.10584 12.03 3.17104 12.1008C3.24474 12.1808 3.34596 12.237 3.54839 12.3495L8.54969 15.128C8.74137 15.2345 8.8372 15.2877 8.9387 15.3086C9.02852 15.3271 9.12117 15.3271 9.211 15.3086C9.31249 15.2877 9.40833 15.2345 9.6 15.128L14.6013 12.3495C14.8037 12.237 14.905 12.1808 14.9787 12.1008C15.0439 12.03 15.0932 11.9462 15.1234 11.8548C15.1575 11.7516 15.1575 11.6358 15.1575 11.4042Z" stroke="black" stroke-width="1.01378" stroke-linecap="round" stroke-linejoin="round"/>
<path d="M12.1159 6.97105L6.0332 3.5918" stroke="black" stroke-width="1.01378" stroke-linecap="round" stroke-linejoin="round"/>
</svg>
