<svg width="16" height="17" viewBox="0 0 16 17" fill="none" xmlns="http://www.w3.org/2000/svg">
<path d="M13.3334 14.7317H12V13.3983C12 12.8679 11.7893 12.3592 11.4142 11.9841C11.0392 11.6091 10.5305 11.3983 10 11.3983H6.00002C5.46959 11.3983 4.96088 11.6091 4.58581 11.9841C4.21073 12.3592 4.00002 12.8679 4.00002 13.3983V14.7317H2.66669V13.3983C2.66669 12.5143 3.01788 11.6664 3.643 11.0413C4.26812 10.4162 5.11597 10.065 6.00002 10.065H10C10.8841 10.065 11.7319 10.4162 12.357 11.0413C12.9822 11.6664 13.3334 12.5143 13.3334 13.3983V14.7317ZM8.00002 8.73168C6.93898 8.73168 5.92139 8.31018 5.17112 7.55991C4.42085 6.80964 3.99935 5.79206 3.99935 4.73101C3.99935 3.66997 4.42085 2.65239 5.17112 1.90211C5.92139 1.15184 6.93898 0.730347 8.00002 0.730347C9.06106 0.730347 10.0786 1.15184 10.8289 1.90211C11.5792 2.65239 12.0007 3.66997 12.0007 4.73101C12.0007 5.79206 11.5792 6.80964 10.8289 7.55991C10.0786 8.31018 9.06106 8.73168 8.00002 8.73168ZM8.00002 7.39835C8.70726 7.39835 9.38554 7.1174 9.88564 6.6173C10.3857 6.1172 10.6667 5.43892 10.6667 4.73168C10.6667 4.02444 10.3857 3.34616 9.88564 2.84606C9.38554 2.34596 8.70726 2.06501 8.00002 2.06501C7.29278 2.06501 6.6145 2.34596 6.1144 2.84606C5.61431 3.34616 5.33335 4.02444 5.33335 4.73168C5.33335 5.43892 5.61431 6.1172 6.1144 6.6173C6.6145 7.1174 7.29278 7.39835 8.00002 7.39835Z" fill="black"/>
</svg>
