<svg width="21" height="20" viewBox="0 0 21 20" fill="none" xmlns="http://www.w3.org/2000/svg">
<path fill-rule="evenodd" clip-rule="evenodd" d="M9.28804 3.33332C6.52661 3.33332 4.28804 5.5719 4.28804 8.33332C4.28804 11.0947 6.52661 13.3333 9.28804 13.3333C12.0495 13.3333 14.288 11.0947 14.288 8.33332C14.288 5.5719 12.0495 3.33332 9.28804 3.33332ZM2.62137 8.33332C2.62137 4.65143 5.60614 1.66666 9.28804 1.66666C12.9699 1.66666 15.9547 4.65143 15.9547 8.33332C15.9547 9.87392 15.4321 11.2925 14.5546 12.4214L19.044 16.9107C19.3694 17.2362 19.3694 17.7638 19.044 18.0892C18.7185 18.4147 18.1909 18.4147 17.8654 18.0892L13.3761 13.5999C12.2472 14.4774 10.8286 15 9.28804 15C5.60614 15 2.62137 12.0152 2.62137 8.33332Z" fill="#475569"/>
</svg>
