<svg width="16" height="16" viewBox="0 0 16 16" fill="none" xmlns="http://www.w3.org/2000/svg">
<path fill-rule="evenodd" clip-rule="evenodd" d="M1.33331 3.99999C1.33331 3.26361 1.93027 2.66666 2.66665 2.66666H7.99998C8.73636 2.66666 9.33331 3.26361 9.33331 3.99999H11.0572C11.4108 3.99999 11.7499 4.14047 12 4.39051L11.5286 4.86192L12 4.39051L14.2761 6.66666C14.5262 6.9167 14.6666 7.25584 14.6666 7.60947V10.6667C14.6666 11.403 14.0697 12 13.3333 12H13.2195C12.945 12.7768 12.2041 13.3333 11.3333 13.3333C10.4625 13.3333 9.72167 12.7768 9.44712 12H9.33331C9.09046 12 8.86276 11.9351 8.66665 11.8216C8.47053 11.9351 8.24284 12 7.99998 12H6.55284C6.27828 12.7768 5.53746 13.3333 4.66665 13.3333C3.79583 13.3333 3.05501 12.7768 2.78045 12H2.66665C1.93027 12 1.33331 11.403 1.33331 10.6667V3.99999ZM2.78045 10.6667C3.05501 9.88986 3.79583 9.33332 4.66665 9.33332C5.53746 9.33332 6.27828 9.88986 6.55284 10.6667H7.99998L7.99998 5.33332C7.99998 5.3327 7.99998 5.33208 7.99998 5.33146L7.99998 5.33332M7.99998 5.33146L7.99998 3.99999L2.66665 3.99999V10.6667H2.78045M9.33331 10.6667H9.44712C9.72167 9.88986 10.4625 9.33332 11.3333 9.33332C12.2041 9.33332 12.945 9.88986 13.2195 10.6667H13.3333L13.3333 7.60947L11.0572 5.33332H9.33331L9.33331 10.6667ZM4.66665 10.6667C4.29846 10.6667 3.99998 10.9651 3.99998 11.3333C3.99998 11.7015 4.29846 12 4.66665 12C5.03484 12 5.33331 11.7015 5.33331 11.3333C5.33331 10.9651 5.03484 10.6667 4.66665 10.6667ZM11.3333 10.6667C10.9651 10.6667 10.6666 10.9651 10.6666 11.3333C10.6666 11.7015 10.9651 12 11.3333 12C11.7015 12 12 11.7015 12 11.3333C12 10.9651 11.7015 10.6667 11.3333 10.6667Z" fill="#475569"/>
</svg>
