<svg width="25" height="24" viewBox="0 0 25 24" fill="none" xmlns="http://www.w3.org/2000/svg">
<path fill-rule="evenodd" clip-rule="evenodd" d="M12.5 4C10.8431 4 9.5 5.34315 9.5 7C9.5 8.65685 10.8431 10 12.5 10C14.1569 10 15.5 8.65685 15.5 7C15.5 5.34315 14.1569 4 12.5 4ZM7.5 7C7.5 4.23858 9.73858 2 12.5 2C15.2614 2 17.5 4.23858 17.5 7C17.5 9.76142 15.2614 12 12.5 12C9.73858 12 7.5 9.76142 7.5 7ZM6.58296 20H18.417C17.941 17.1623 15.473 15 12.5 15C9.527 15 7.05904 17.1623 6.58296 20ZM4.5 21C4.5 16.5817 8.08172 13 12.5 13C16.9183 13 20.5 16.5817 20.5 21C20.5 21.5523 20.0523 22 19.5 22H5.5C4.94772 22 4.5 21.5523 4.5 21Z" fill="#0F172A"/>
</svg>
