<svg width="18" height="17" viewBox="0 0 18 17" fill="none" xmlns="http://www.w3.org/2000/svg">
<path d="M11.7783 5.72198V3.35694C11.7783 2.79481 11.7783 2.51374 11.6598 2.34101C11.5564 2.1901 11.3962 2.08758 11.2158 2.05689C11.0093 2.02176 10.7541 2.13954 10.2437 2.37511L4.2486 5.14209C3.79341 5.35218 3.56582 5.45722 3.39912 5.62014C3.25175 5.76416 3.13926 5.93997 3.07025 6.13413C2.99219 6.35375 2.99219 6.60442 2.99219 7.10576V10.4529M12.1162 10.115H12.1229M2.99219 7.8847L2.99219 12.3453C2.99219 13.1023 2.99219 13.4809 3.13951 13.77C3.26911 14.0243 3.47589 14.2311 3.73023 14.3607C4.01937 14.508 4.39789 14.508 5.15491 14.508H12.9948C13.7518 14.508 14.1303 14.508 14.4195 14.3607C14.6738 14.2311 14.8806 14.0243 15.0102 13.77C15.1575 13.4809 15.1575 13.1023 15.1575 12.3453V7.8847C15.1575 7.12768 15.1575 6.74916 15.0102 6.46002C14.8806 6.20568 14.6738 5.9989 14.4195 5.8693C14.1303 5.72198 13.7518 5.72198 12.9948 5.72198L5.15491 5.72198C4.39789 5.72198 4.01937 5.72198 3.73023 5.8693C3.47589 5.99889 3.26911 6.20568 3.13951 6.46002C2.99219 6.74916 2.99219 7.12767 2.99219 7.8847ZM12.4541 10.115C12.4541 10.3016 12.3028 10.4529 12.1162 10.4529C11.9295 10.4529 11.7783 10.3016 11.7783 10.115C11.7783 9.92838 11.9295 9.77708 12.1162 9.77708C12.3028 9.77708 12.4541 9.92838 12.4541 10.115Z" stroke="black" stroke-width="1.01378" stroke-linecap="round" stroke-linejoin="round"/>
</svg>
