<svg width="25" height="25" viewBox="0 0 25 25" fill="none" xmlns="http://www.w3.org/2000/svg">
<path d="M13.541 5.05246V5.44648C13.541 7.67538 13.541 8.78983 14.2335 9.48226C14.9259 10.1747 16.0404 10.1747 18.2692 10.1747H18.6633M19.0573 11.4804V14.1149C19.0573 17.0867 19.0573 18.5727 18.134 19.4959C17.2108 20.4191 15.7248 20.4191 12.753 20.4191C9.78114 20.4191 8.29521 20.4191 7.37197 19.4959C6.44873 18.5727 6.44873 17.0867 6.44873 14.1149V10.5339C6.44873 7.97672 6.44873 6.69812 7.14698 5.83209C7.28805 5.65713 7.44741 5.49777 7.62237 5.3567C8.48841 4.65845 9.767 4.65845 12.3242 4.65845C12.8802 4.65845 13.1581 4.65845 13.4127 4.74829C13.4657 4.76698 13.5176 4.78847 13.5682 4.8127C13.8118 4.92918 14.0083 5.12575 14.4015 5.51889L18.134 9.25145C18.5896 9.70698 18.8173 9.93475 18.9373 10.2244C19.0573 10.514 19.0573 10.8361 19.0573 11.4804Z" stroke="#141B34" stroke-width="1.25" stroke-linecap="round" stroke-linejoin="round"/>
</svg>
