<svg width="21" height="21" viewBox="0 0 21 21" fill="none" xmlns="http://www.w3.org/2000/svg">
<path d="M14.9197 3.4918H18.253M14.9197 3.4918C14.9197 3.95862 16.1649 4.83078 16.5863 5.15847M14.9197 3.4918C14.9197 3.02498 16.1649 2.15282 16.5863 1.82513" stroke="black" stroke-width="1.25" stroke-linecap="round" stroke-linejoin="round"/>
<path d="M6.58626 3.4918H3.25293M6.58626 3.4918C6.58626 3.02498 5.34101 2.15282 4.9196 1.82513M6.58626 3.4918C6.58626 3.95862 5.34101 4.83078 4.9196 5.15847" stroke="black" stroke-width="1.25" stroke-linecap="round" stroke-linejoin="round"/>
<path d="M8.94868 18.4918V17.7012C8.94868 17.1633 8.77476 16.6397 8.45271 16.2081L5.40473 12.1223C5.05319 11.6511 4.77243 11.0665 5.00451 10.5267C5.38021 9.65305 6.44016 9.08547 7.73754 10.3954L9.06855 11.8199V3.13394C9.11543 1.43132 11.8554 1.34692 11.9726 3.13394V8.08397C13.2059 7.92468 19.0159 8.79422 18.1691 12.4777C18.1288 12.6527 18.0887 12.8304 18.0494 13.0056C17.8781 13.7712 17.3715 15.1357 16.8129 15.9335C16.2314 16.764 16.4366 17.5911 16.4366 18.4918" stroke="black" stroke-width="1.25" stroke-linecap="round" stroke-linejoin="round"/>
</svg>
