<svg width="21" height="21" viewBox="0 0 21 21" fill="none" xmlns="http://www.w3.org/2000/svg">
<path d="M15.7529 6.08008C15.7528 7.28995 14.5772 8.40478 12.811 10.1502C11.6748 11.2731 9.83093 11.2718 8.69407 10.1495C6.92914 8.40522 5.75283 7.28975 5.75293 6.07987C5.75303 4.86999 6.04818 4.62728 8.76 1.94728C9.02094 1.68718 9.46976 1.87004 9.46976 2.23628L9.46993 4.99617C9.46993 5.69669 10.0436 6.26554 10.7524 6.26548C11.4613 6.26543 12.0359 5.69753 12.0361 4.99701L12.0367 2.23709C12.0368 1.87084 12.4857 1.6879 12.7466 1.94796C15.4579 4.62753 15.753 4.8702 15.7529 6.08008Z" stroke="black" stroke-width="1.25"/>
<path d="M13.2529 10.1584V16.1294C13.2529 17.4341 12.1337 18.4918 10.7529 18.4918C9.37218 18.4918 8.25293 17.4341 8.25293 16.1294V10.1584" stroke="black" stroke-width="1.25" stroke-linecap="round"/>
<path d="M10.7582 15.9914L10.7529 15.9967" stroke="black" stroke-width="1.66667" stroke-linecap="round" stroke-linejoin="round"/>
</svg>
