<svg width="44" height="16" viewBox="0 0 44 16" fill="none" xmlns="http://www.w3.org/2000/svg">
<path d="M18.7212 8.94263H0.403809V15.0448H18.7212V8.94263Z" fill="#919191"/>
<path d="M18.7212 0.615967H0.403809V6.72357H18.7212V0.615967Z" fill="#919191"/>
<path d="M37.039 13.8046L36.9574 13.821C36.6746 13.8753 36.5713 13.8971 36.3646 13.8971C35.886 13.8971 35.3204 13.6524 35.3204 12.4994C35.3204 11.9066 35.4183 11.118 36.3102 11.118H36.3156C36.4679 11.1288 36.642 11.1451 36.9683 11.243L37.039 11.2648V13.8046ZM37.1858 8.05599L37.039 8.08319V10.2151L36.9085 10.1771L36.8704 10.1662C36.7235 10.1227 36.3863 10.0248 36.06 10.0248C34.2761 10.0248 33.9009 11.3736 33.9009 12.5048C33.9009 14.0548 34.7711 14.9468 36.2884 14.9468C36.9302 14.9468 37.4034 14.8815 37.882 14.7238C38.3225 14.5824 38.4802 14.3811 38.4802 13.9515V7.83301C38.056 7.90915 37.6155 7.98529 37.1858 8.05599Z" fill="#919191"/>
<path d="M42.3416 13.8429L42.2655 13.8646L41.9936 13.9353C41.7379 14.0006 41.5095 14.0387 41.3355 14.0387C40.9167 14.0387 40.6665 13.832 40.6665 13.4785C40.6665 13.2501 40.7699 12.8639 41.4551 12.8639H42.3416V13.8429ZM41.7162 9.99774C41.1669 9.99774 40.6013 10.0956 39.8997 10.3132L39.4428 10.4491L39.5951 11.4825L40.0411 11.3357C40.5088 11.1834 41.0907 11.0855 41.5258 11.0855C41.7216 11.0855 42.3199 11.0855 42.3199 11.7327V12.0155H41.4878C39.9704 12.0155 39.2688 12.4995 39.2688 13.5383C39.2688 14.4248 39.916 14.9578 41.0037 14.9578C41.3409 14.9578 41.8086 14.8925 42.2111 14.7946L42.2329 14.7892L42.2546 14.7946L42.3906 14.8164C42.8148 14.8925 43.2553 14.9687 43.685 15.0502V11.6565C43.685 10.5579 43.0215 9.99774 41.7162 9.99774Z" fill="#919191"/>
<path d="M31.774 13.8429L31.6979 13.8646L31.4259 13.9353C31.1703 14.0006 30.9473 14.0387 30.7679 14.0387C30.3491 14.0387 30.0989 13.832 30.0989 13.4785C30.0989 13.2501 30.2022 12.8639 30.8821 12.8639H31.7686V13.8429H31.774ZM31.154 9.99774C30.5993 9.99774 30.0391 10.0956 29.3375 10.3132L28.8806 10.4491L29.0329 11.4825L29.4789 11.3357C29.9466 11.1834 30.5286 11.0855 30.9636 11.0855C31.1594 11.0855 31.7577 11.0855 31.7577 11.7327V12.0155H30.9256C29.4082 12.0155 28.7012 12.4995 28.7012 13.5383C28.7012 14.4248 29.3484 14.9578 30.4415 14.9578C30.7787 14.9578 31.2465 14.8925 31.6489 14.7946L31.6707 14.7892L31.6924 14.7946L31.823 14.8164C32.2526 14.8925 32.6877 14.9687 33.1174 15.0557V11.662C33.1228 10.5525 32.4593 9.99774 31.154 9.99774Z" fill="#919191"/>
<path d="M26.0475 10.0084C25.3568 10.0084 24.7857 10.2368 24.5736 10.3347L24.5192 10.3619L24.4703 10.3238C24.1766 10.1117 23.7469 10.0029 23.1487 10.0029C22.6211 10.0029 22.1262 10.0791 21.5878 10.2368C21.1255 10.3782 20.946 10.6012 20.946 11.02V14.8977H22.3927V11.3136L22.4634 11.2919C22.7571 11.194 22.9312 11.1777 23.0998 11.1777C23.5185 11.1777 23.7306 11.4007 23.7306 11.8358V14.9032H25.1556V11.7759C25.1556 11.591 25.1175 11.4822 25.1121 11.4605L25.0631 11.368L25.161 11.3245C25.3785 11.2266 25.6178 11.1777 25.868 11.1777C26.1563 11.1777 26.4989 11.2919 26.4989 11.8358V14.9032H27.9184V11.6943C27.9184 10.5577 27.3093 10.0084 26.0475 10.0084Z" fill="#919191"/>
<path d="M41.2749 4.597C41.0628 4.597 40.7093 4.57524 40.4319 4.52086L40.3503 4.50454V2.41066C40.3503 2.23662 40.3177 2.12785 40.3123 2.11153L40.2688 2.02452L40.3612 1.98645C40.383 1.97557 40.4047 1.97013 40.4319 1.95925L40.4482 1.94838C40.4809 1.9375 40.5135 1.92662 40.5461 1.91574C40.5625 1.91031 40.5733 1.90487 40.5842 1.90487C40.9051 1.81785 41.1988 1.82873 41.3293 1.81785H41.3347C42.2212 1.81785 42.3246 2.60645 42.3246 3.19926C42.3191 4.35226 41.7481 4.597 41.2749 4.597ZM41.2695 0.615906C41.2586 0.615906 41.2423 0.615906 41.2314 0.615906C40.3993 0.615906 39.5454 0.84433 39.2409 1.2903C39.0777 1.50785 38.9852 1.77978 38.9798 2.10066V4.2598C38.9798 4.44472 38.9417 4.51542 38.9363 4.53173L38.8874 4.62419H36.2605V3.12312H36.255C36.2224 1.54048 35.287 0.670292 33.9327 0.670292H33.775H32.6111C32.5568 1.05644 32.5133 1.32837 32.4589 1.71451H33.775C34.4657 1.71451 34.8301 2.30189 34.8301 3.2047V4.71665L34.7377 4.6677C34.7213 4.66226 34.6071 4.62419 34.4277 4.62419H32.1543C32.1108 4.91244 32.0564 5.28771 31.9966 5.66297H38.9852C39.2245 5.61403 39.5019 5.57052 39.7412 5.53245C40.0947 5.70648 40.7528 5.79894 41.2042 5.79894C42.7216 5.79894 43.706 4.78191 43.706 3.21558C43.7006 1.66557 42.7488 0.648538 41.2695 0.615906Z" fill="#919191"/>
<path d="M29.017 6.29935H29.0823C30.5997 6.29935 31.3067 5.79899 31.3067 4.56442C31.3067 3.67792 30.6595 2.97089 29.5717 2.97089H28.174C27.7552 2.97089 27.5051 2.73159 27.5051 2.32913C27.5051 2.0572 27.6084 1.72 28.2937 1.72H31.3502C31.4154 1.32298 31.4481 1.0728 31.5079 0.675781H28.3317C26.8524 0.675781 26.1073 1.29579 26.1073 2.32913C26.1073 3.3516 26.7545 3.88458 27.8423 3.88458H29.24C29.6588 3.88458 29.9089 4.21634 29.9089 4.56442C29.9089 4.79284 29.8056 5.266 29.1258 5.266H28.8919L24.4159 5.25513H23.6001C22.9094 5.25513 22.4254 4.86354 22.4254 3.95529V3.32984C22.4254 2.38352 22.8006 1.79614 23.6001 1.79614H24.9271C24.987 1.39368 25.025 1.13807 25.0794 0.757361H23.4261H23.2683C21.9141 0.757361 20.9787 1.66562 20.946 3.24826V3.30809V3.95529C20.9787 5.53794 21.9141 6.29391 23.2683 6.29391H23.4261H24.5899L27.0156 6.29935H28.4623H29.017Z" fill="#919191"/>
</svg>
