<svg width="36" height="28" viewBox="0 0 36 28" fill="none" xmlns="http://www.w3.org/2000/svg">
<path fill-rule="evenodd" clip-rule="evenodd" d="M24.9835 0.219116C30.9512 0.219116 35.789 5.05741 35.789 11.0251C35.789 16.9927 30.9512 21.8305 24.9835 21.8305C22.4577 21.8305 20.1342 20.964 18.2942 19.5117C20.8016 17.5327 22.4108 14.4669 22.4108 11.0251C22.4108 7.58323 20.8016 4.51695 18.2942 2.53844C20.1342 1.08616 22.4577 0.219116 24.9835 0.219116Z" fill="#919191"/>
<path fill-rule="evenodd" clip-rule="evenodd" d="M11.6052 0.219116C14.1311 0.219116 16.4541 1.08616 18.294 2.53844C15.7872 4.51695 14.1774 7.58323 14.1774 11.0251C14.1774 14.4669 15.7872 17.5327 18.294 19.5117C16.4546 20.964 14.1311 21.8305 11.6052 21.8305C5.63757 21.8305 0.799805 16.9927 0.799805 11.0251C0.799805 5.05741 5.63757 0.219116 11.6052 0.219116Z" fill="#919191"/>
<path fill-rule="evenodd" clip-rule="evenodd" d="M18.2944 19.5121C15.7875 17.5331 14.1777 14.4673 14.1777 11.0255C14.1777 7.5836 15.7875 4.51733 18.2944 2.53882C20.8017 4.51733 22.411 7.5836 22.411 11.0255C22.411 14.4673 20.8017 17.5331 18.2944 19.5121Z" fill="#919191"/>
<path fill-rule="evenodd" clip-rule="evenodd" d="M2.53 24.7772V24.45H1.9021V27.3161H2.55686V25.5963C2.55686 25.257 2.82024 24.9684 3.23954 24.9684C3.73575 24.9684 3.86744 25.3445 3.86744 25.8417V27.3161H4.49534V25.8149C4.49534 24.6581 5.80539 24.7671 5.80539 25.5963V27.3161H6.46068V25.4598C6.46068 24.2736 4.89937 24.0112 4.33152 24.8593C4.12819 24.7103 4.08341 24.3679 3.29433 24.3679C3.12313 24.3679 2.96563 24.4295 2.84816 24.4953C2.77968 24.5333 2.72437 24.5696 2.67222 24.6197C2.60585 24.6834 2.59216 24.7319 2.53 24.7772Z" fill="#919191"/>
<path fill-rule="evenodd" clip-rule="evenodd" d="M31.0561 25.9791C31.0561 25.6883 31.0798 25.4028 31.309 25.1947C31.8415 24.7122 32.7486 25.0425 32.7486 25.7878V25.9791C32.7486 26.4263 32.3483 26.795 31.9021 26.795C31.4559 26.795 31.0561 26.4263 31.0561 25.9791ZM32.7212 24.7506C32.4889 24.5947 32.3936 24.3682 31.8204 24.3682C30.9797 24.3682 30.3871 25.053 30.3882 25.8695C30.3903 27.2391 31.7931 27.7347 32.5421 27.1648C32.6211 27.1047 32.6511 27.0631 32.7212 27.0162V27.3165H33.376V23.3584C33.376 23.2236 33.1611 23.2762 32.8029 23.2762C32.6812 23.2762 32.7196 23.4464 32.7207 23.5765L32.7212 24.7506Z" fill="#919191"/>
<path fill-rule="evenodd" clip-rule="evenodd" d="M25.2689 25.9788C25.2689 25.5969 25.3337 25.2029 25.7698 25.0333C26.3582 24.8047 26.9608 25.195 26.9608 25.7876V25.9788C26.9608 26.426 26.561 26.7948 26.1149 26.7948C25.6687 26.7948 25.2689 26.426 25.2689 25.9788ZM26.0332 27.3979C26.5837 27.3979 26.7222 27.1572 26.934 27.016V27.3163H27.5887V24.4502H26.934V24.7504C26.7017 24.5945 26.6063 24.368 26.0332 24.368C24.7142 24.368 24.1501 25.9862 24.9887 26.9407C25.1915 27.1714 25.6102 27.3979 26.0332 27.3979Z" fill="#919191"/>
<path fill-rule="evenodd" clip-rule="evenodd" d="M8.53501 26.7974C7.37824 26.7974 7.35348 24.9685 8.53501 24.9685C9.46685 24.9685 9.67966 26.3186 8.90427 26.7026C8.83737 26.7358 8.61718 26.7974 8.53501 26.7974ZM7.00635 25.7876V25.9788C7.00635 26.9617 8.0604 27.6829 8.94483 27.2889C9.2003 27.1751 9.20505 27.0971 9.32673 27.016V27.3163H9.98202V24.4502H9.32673V24.7504C9.10759 24.6034 9.04438 24.368 8.39858 24.368C7.99718 24.368 7.62634 24.5782 7.42196 24.7831C7.21916 24.9859 7.00635 25.3904 7.00635 25.7876Z" fill="#919191"/>
<path fill-rule="evenodd" clip-rule="evenodd" d="M17.6803 24.9412C17.9095 24.9412 18.0933 25.0002 18.2192 25.1398C18.3051 25.2341 18.4136 25.4564 18.4173 25.6239H16.9708C16.9708 25.251 17.3032 24.9412 17.6803 24.9412ZM16.2881 25.7878C16.2881 27.3838 17.7225 27.6846 18.6817 27.171C18.7749 27.121 18.8539 27.0378 18.9361 27.0162C18.9219 26.8471 18.708 26.6922 18.6632 26.5247C18.5927 26.541 17.7277 27.141 17.1678 26.5732C16.9797 26.383 17.0208 26.2766 16.9434 26.1154H19.0725C19.0762 25.9584 19.1142 25.9732 19.0847 25.7762C19.0646 25.6403 19.0689 25.5634 19.0388 25.439C18.7396 24.1875 17.3163 24.1127 16.6832 24.7901C16.4867 25.0008 16.2881 25.3953 16.2881 25.7878Z" fill="#919191"/>
<path fill-rule="evenodd" clip-rule="evenodd" d="M10.6923 25.1871C10.6923 25.4826 10.6844 25.6127 10.9304 25.8498C11.4097 26.3128 12.4664 26.0304 12.4664 26.4971C12.4664 26.8906 11.6594 26.8606 11.2749 26.7337C11.189 26.7052 11.139 26.6841 11.0652 26.6431C10.9825 26.5962 10.9488 26.5493 10.8561 26.5245C10.7803 26.6683 10.5912 26.9454 10.5833 27.0434C10.6754 27.0676 10.7534 27.1382 10.8303 27.1782C11.3339 27.4406 12.1546 27.4838 12.6766 27.1983C13.2608 26.8785 13.3972 25.8914 12.3964 25.6396C12.0255 25.5463 11.3476 25.5558 11.3476 25.2687C11.3476 25.0264 11.6441 24.9411 11.8933 24.9411C12.2504 24.9411 12.5586 25.0623 12.7941 25.1871C12.8868 25.0117 12.9758 24.8405 13.0675 24.6682C12.6039 24.4233 12.3721 24.368 11.7843 24.368C11.277 24.368 10.6923 24.6893 10.6923 25.1871Z" fill="#919191"/>
<path fill-rule="evenodd" clip-rule="evenodd" d="M14.1315 24.368C14.1315 24.505 13.8987 24.4502 13.531 24.4502V25.0233H14.1315V26.5246C14.1315 27.3748 15.0749 27.6192 15.9056 27.1799C15.8925 27.0192 15.7808 26.8006 15.7418 26.6336C15.5906 26.6463 14.7589 27.1314 14.7589 26.2517V25.0233H15.7966V24.4502H14.7589V23.5763H14.1315V24.368Z" fill="#919191"/>
<path fill-rule="evenodd" clip-rule="evenodd" d="M21.7197 25.815C21.7197 27.379 23.3016 27.7103 24.1634 27.1393C24.2408 27.0882 24.1897 27.0961 24.2856 27.0703C24.2777 26.9728 24.0875 26.6936 24.0127 26.5519C23.8974 26.5614 23.7146 26.7063 23.5276 26.7495C21.9162 27.1224 22.0458 24.4628 23.6619 25.0465C23.812 25.1002 23.8694 25.1808 24.0127 25.2145C24.057 25.0475 24.2419 24.8832 24.2856 24.6956C24.1939 24.6472 24.1892 24.6272 24.1038 24.5771C23.5197 24.2374 22.6405 24.3027 22.1627 24.7841C21.8978 25.0517 21.7197 25.3941 21.7197 25.815Z" fill="#919191"/>
<path fill-rule="evenodd" clip-rule="evenodd" d="M29.0078 24.7505V24.4502H28.3799V27.3163H29.0352V25.5417C29.0352 25.3162 29.1927 25.0923 29.3618 25.0223C29.5656 24.9375 29.8474 24.9691 30.0176 25.0507C30.084 24.9122 30.1698 24.6172 30.2088 24.4502C29.9054 24.3043 29.4139 24.3349 29.1426 24.6125C29.0905 24.6662 29.0731 24.7068 29.0078 24.7505Z" fill="#919191"/>
<path fill-rule="evenodd" clip-rule="evenodd" d="M20.3552 24.7504V24.4502H19.7273V27.3163H20.3552V25.678C20.3552 25.2935 20.5454 24.9685 20.9283 24.9685C21.1 24.9685 21.2307 25.0191 21.365 25.0507C21.3729 24.9558 21.5178 24.5297 21.5562 24.4502C21.4414 24.3948 21.2254 24.368 21.0647 24.368C20.7092 24.368 20.5206 24.5597 20.3552 24.7504Z" fill="#919191"/>
<path fill-rule="evenodd" clip-rule="evenodd" d="M34.4136 27.3977C34.1824 27.3977 34.195 27.216 34.195 27.1248C34.195 26.9468 34.6043 26.872 34.6043 27.1796C34.6043 27.296 34.5206 27.3977 34.4136 27.3977ZM34.3415 27.4525H34.3041C34.2166 27.4519 34.1144 27.3166 34.0997 27.2207C34.0433 26.8467 34.6865 26.7629 34.6865 27.1522C34.6865 27.4393 34.5253 27.4519 34.3415 27.4525Z" fill="#919191"/>
<path fill-rule="evenodd" clip-rule="evenodd" d="M34.3585 27.0976H34.4402V27.1524H34.3585V27.0976ZM34.2769 27.3162H34.3585V27.234C34.4481 27.2941 34.3964 27.3057 34.5223 27.3162C34.4022 27.1371 34.5171 27.3009 34.5223 27.0702L34.2769 27.0433V27.3162Z" fill="#919191"/>
</svg>
