<svg width="27" height="28" viewBox="0 0 27 28" fill="none" xmlns="http://www.w3.org/2000/svg">
<path d="M11.4277 13.1804L11.4386 13.1701M15.5637 17.5271L15.5746 17.5168" stroke="#2E2E2E" stroke-width="2" stroke-linecap="round" stroke-linejoin="round"/>
<path d="M10.5979 18.1076L16.3969 12.5966" stroke="#2E2E2E" stroke-width="1.5" stroke-linecap="round" stroke-linejoin="round"/>
<path d="M12.6982 5.07529C13.2987 4.5046 14.2481 4.52877 14.8188 5.12928C15.3895 5.72979 15.3653 6.67923 14.7648 7.24991C14.1643 7.8206 13.2149 7.79643 12.6442 7.19592C12.0735 6.59541 12.0977 5.64597 12.6982 5.07529Z" stroke="#2E2E2E" stroke-width="1.5" stroke-linecap="round" stroke-linejoin="round"/>
<path d="M6.25553 19.6737C6.30019 21.1769 7.44896 22.4171 8.93547 22.6448C11.8853 23.0967 14.7122 23.1686 17.6812 22.8674C19.1773 22.7157 20.3877 21.5356 20.5088 20.0367C20.8375 15.967 20.896 11.9848 20.6899 7.86541C20.6696 7.45818 20.529 7.06896 20.2763 6.74889C19.1589 5.33362 15.8409 1.35008 13.8547 1.29949C11.8684 1.24896 8.35189 5.05845 7.16396 6.41499C6.8953 6.7218 6.7351 7.1034 6.69398 7.50912C6.27861 11.6126 6.13436 15.5926 6.25553 19.6737Z" stroke="#2E2E2E" stroke-width="1.5"/>
</svg>
