<svg width="21" height="21" viewBox="0 0 21 21" fill="none" xmlns="http://www.w3.org/2000/svg">
<path d="M1.91968 10.2191C1.91968 7.2712 1.91968 5.79724 2.79701 4.81318C2.93734 4.65579 3.09199 4.51022 3.25923 4.37815C4.30479 3.55243 5.87086 3.55243 9.00301 3.55243H11.503C14.6352 3.55243 16.2013 3.55243 17.2468 4.37815C17.414 4.51022 17.5687 4.65579 17.709 4.81318C18.5863 5.79724 18.5863 7.2712 18.5863 10.2191C18.5863 13.167 18.5863 14.6409 17.709 15.625C17.5687 15.7824 17.414 15.9279 17.2468 16.06C16.2013 16.8858 14.6352 16.8858 11.503 16.8858H9.00301C5.87086 16.8858 4.30479 16.8858 3.25923 16.06C3.09199 15.9279 2.93734 15.7824 2.79701 15.625C1.91968 14.6409 1.91968 13.167 1.91968 10.2191Z" stroke="white" stroke-width="1.25" stroke-linecap="round" stroke-linejoin="round"/>
<path d="M8.58618 13.5524H9.83618" stroke="white" stroke-width="1.25" stroke-miterlimit="10" stroke-linecap="round" stroke-linejoin="round"/>
<path d="M12.3362 13.5524H15.2528" stroke="white" stroke-width="1.25" stroke-miterlimit="10" stroke-linecap="round" stroke-linejoin="round"/>
<path d="M1.91968 7.71912H18.5863" stroke="white" stroke-width="1.25" stroke-linejoin="round"/>
</svg>
