<svg width="43" height="14" viewBox="0 0 43 14" fill="none" xmlns="http://www.w3.org/2000/svg">
<path d="M21.3941 0.353415L18.6138 13.3515H15.251L18.0315 0.353415H21.3941ZM35.5414 8.74645L37.3113 3.8654L38.3298 8.74645H35.5414ZM39.2946 13.3515H42.404L39.6875 0.353415H36.8193C36.1729 0.353415 35.628 0.728206 35.3868 1.30618L30.3411 13.3515H33.8727L34.5737 11.4103H38.8873L39.2946 13.3515ZM30.5162 9.10809C30.5309 5.67767 25.7741 5.48764 25.8059 3.95486C25.8162 3.48915 26.2605 2.99303 27.2317 2.86615C27.7132 2.80417 29.0419 2.75389 30.5481 3.44792L31.1372 0.690493C30.3283 0.397852 29.2872 0.116028 27.9918 0.116028C24.6675 0.116028 22.329 1.88181 22.3103 4.41238C22.289 6.28371 23.9808 7.3271 25.2528 7.95039C26.5643 8.58741 27.0037 8.99582 26.9972 9.56503C26.9882 10.4371 25.9515 10.8233 24.9862 10.8379C23.2946 10.8642 22.3141 10.3807 21.5327 10.0164L20.9222 12.8659C21.7092 13.2261 23.1593 13.5395 24.6608 13.5556C28.195 13.5556 30.5057 11.8106 30.5162 9.10809ZM16.589 0.353415L11.1405 13.3515H7.58646L4.90504 2.97812C4.74249 2.34022 4.6007 2.10575 4.10634 1.83621C3.29771 1.3971 1.96284 0.98635 0.789062 0.730837L0.868582 0.353415H6.59043C7.31925 0.353415 7.97499 0.838421 8.14192 1.67805L9.55835 9.20018L13.0563 0.353415H16.589Z" fill="#919191"/>
</svg>
