<svg width="55" height="23" viewBox="0 0 55 23" fill="none" xmlns="http://www.w3.org/2000/svg">
<path d="M10.4331 4.42798C10.9385 4.42798 12.7466 4.4729 13.9258 6.19116C13.8247 6.26978 12.0278 7.28052 12.0278 9.54907C12.0278 12.177 14.3188 13.1091 14.3862 13.1316C14.375 13.1877 14.0156 14.4006 13.1846 15.6472C12.4321 16.7253 11.6348 17.8147 10.4331 17.8147C9.23145 17.8147 8.91699 17.1184 7.54688 17.1184C6.18799 17.1184 5.70508 17.8372 4.61572 17.8372C3.51514 17.8372 2.74023 16.8264 1.87549 15.6023C0.853516 14.1311 0.0224609 11.8738 0.0224609 9.72876C0.0224609 6.30347 2.25732 4.4729 4.4585 4.4729C5.61523 4.4729 6.59229 5.23657 7.32227 5.23657C8.01855 5.23657 9.09668 4.42798 10.4331 4.42798ZM9.81543 2.97925C9.22021 3.698 8.20947 4.23706 7.41211 4.23706C7.32227 4.23706 7.23242 4.22583 7.17627 4.2146C7.16504 4.16968 7.14258 4.02368 7.14258 3.88892C7.14258 2.97925 7.61426 2.06958 8.1084 1.49683C8.74854 0.744385 9.82666 0.194092 10.7026 0.1604C10.7251 0.261475 10.7363 0.38501 10.7363 0.508545C10.7363 1.41821 10.3545 2.31665 9.81543 2.97925Z" fill="black"/>
<path d="M18.8007 1.42944H25.3369C28.5713 1.42944 30.7837 3.64185 30.7837 6.90991C30.7837 10.1218 28.4926 12.323 25.2133 12.323H21.6982V17.635H18.8007V1.42944ZM21.6982 3.85522V9.91968H24.562C26.6284 9.91968 27.8413 8.84155 27.8413 6.90991C27.8413 4.92212 26.6621 3.85522 24.5732 3.85522H21.6982Z" fill="black"/>
<path d="M36.2201 15.6472C37.9047 15.6472 39.1625 14.5579 39.1625 13.1316V12.1545L36.3886 12.3342C34.8276 12.4353 34.0976 12.9968 34.0976 13.9963C34.0976 15.0295 34.9848 15.6472 36.2201 15.6472ZM35.4003 17.8372C33.0307 17.8372 31.3349 16.3997 31.3349 14.1536C31.3349 11.9299 33.0082 10.6497 35.9955 10.47L39.1625 10.2791V9.24585C39.1625 8.04419 38.3539 7.37036 36.849 7.37036C35.5688 7.37036 34.6928 7.81958 34.4345 8.65063H31.8066C32.0312 6.48315 34.0639 5.10181 36.9838 5.10181C40.1396 5.10181 41.914 6.64038 41.914 9.24585V17.635H39.2299V15.9504H39.039C38.3539 17.1409 37.0063 17.8372 35.4003 17.8372Z" fill="black"/>
<path d="M45.0145 22.0935C44.8461 22.0935 44.0936 22.0823 43.914 22.0486V19.7688C44.0712 19.8025 44.4867 19.8137 44.6776 19.8137C45.8568 19.8137 46.5194 19.3645 46.8788 18.2302L47.0248 17.6912L42.6337 5.34888H45.6884L48.5634 14.9397H48.7543L51.6181 5.34888H54.5604L50.1244 18.0281C49.08 21.0828 47.766 22.0935 45.0145 22.0935Z" fill="black"/>
</svg>
