<svg width="42" height="15" viewBox="0 0 42 15" fill="none" xmlns="http://www.w3.org/2000/svg">
<path d="M20.7017 1.02791L17.9215 14.026H14.5586L17.3391 1.02791H20.7017ZM34.849 9.42095L36.6189 4.5399L37.6375 9.42095H34.849ZM38.6022 14.026H41.7116L38.9951 1.02791H36.1269C35.4805 1.02791 34.9356 1.40271 34.6944 1.98068L29.6487 14.026H33.1803L33.8814 12.0848H38.195L38.6022 14.026ZM29.8239 9.78259C29.8385 6.35217 25.0817 6.16214 25.1135 4.62936C25.1238 4.16365 25.5681 3.66753 26.5393 3.54065C27.0208 3.47867 28.3495 3.42839 29.8557 4.12242L30.4448 1.36499C29.6359 1.07235 28.5948 0.790527 27.2994 0.790527C23.9751 0.790527 21.6366 2.55631 21.6179 5.08688C21.5966 6.95821 23.2884 8.0016 24.5604 8.62489C25.8719 9.26191 26.3113 9.67032 26.3049 10.2395C26.2958 11.1116 25.2591 11.4978 24.2938 11.5124C22.6023 11.5387 21.6217 11.0552 20.8403 10.6909L20.2299 13.5404C21.0169 13.9006 22.4669 14.214 23.9684 14.2301C27.5026 14.2301 29.8133 12.4851 29.8239 9.78259ZM15.8967 1.02791L10.4482 14.026H6.89408L4.21266 3.65262C4.05011 3.01472 3.90832 2.78025 3.41396 2.51071C2.60532 2.0716 1.27046 1.66085 0.0966797 1.40534L0.176199 1.02791H5.89805C6.62687 1.02791 7.28261 1.51292 7.44954 2.35255L8.86597 9.87467L12.3639 1.02791H15.8967Z" fill="#919191"/>
</svg>
