<svg width="36" height="29" viewBox="0 0 36 29" fill="none" xmlns="http://www.w3.org/2000/svg">
<path fill-rule="evenodd" clip-rule="evenodd" d="M24.2914 0.893555C30.259 0.893555 35.0968 5.73185 35.0968 11.6995C35.0968 17.6672 30.259 22.5049 24.2914 22.5049C21.7656 22.5049 19.442 21.6384 17.6021 20.1862C20.1094 18.2071 21.7187 15.1414 21.7187 11.6995C21.7187 8.25766 20.1094 5.19139 17.6021 3.21288C19.442 1.7606 21.7656 0.893555 24.2914 0.893555Z" fill="#919191"/>
<path fill-rule="evenodd" clip-rule="evenodd" d="M10.9129 0.893555C13.4387 0.893555 15.7617 1.7606 17.6017 3.21288C15.0948 5.19139 13.485 8.25766 13.485 11.6995C13.485 15.1414 15.0948 18.2071 17.6017 20.1862C15.7622 21.6384 13.4387 22.5049 10.9129 22.5049C4.94519 22.5049 0.107422 17.6672 0.107422 11.6995C0.107422 5.73185 4.94519 0.893555 10.9129 0.893555Z" fill="#919191"/>
<path fill-rule="evenodd" clip-rule="evenodd" d="M17.602 20.1865C15.0951 18.2075 13.4854 15.1417 13.4854 11.6999C13.4854 8.25804 15.0951 5.19177 17.602 3.21326C20.1094 5.19177 21.7186 8.25804 21.7186 11.6999C21.7186 15.1417 20.1094 18.2075 17.602 20.1865Z" fill="#919191"/>
<path fill-rule="evenodd" clip-rule="evenodd" d="M1.83786 25.4517V25.1245H1.20996V27.9906H1.86472V26.2708C1.86472 25.9315 2.1281 25.6429 2.54741 25.6429C3.04361 25.6429 3.1753 26.019 3.1753 26.5162V27.9906H3.8032V26.4894C3.8032 25.3326 5.11326 25.4416 5.11326 26.2708V27.9906H5.76855V26.1343C5.76855 24.9481 4.20723 24.6857 3.63938 25.5338C3.43605 25.3848 3.39128 25.0424 2.60219 25.0424C2.43099 25.0424 2.27349 25.104 2.15602 25.1698C2.08754 25.2078 2.03223 25.2441 1.98008 25.2941C1.91371 25.3579 1.90002 25.4063 1.83786 25.4517Z" fill="#919191"/>
<path fill-rule="evenodd" clip-rule="evenodd" d="M30.3637 26.6535C30.3637 26.3627 30.3874 26.0772 30.6166 25.8691C31.1491 25.3866 32.0562 25.7169 32.0562 26.4623V26.6535C32.0562 27.1007 31.6559 27.4694 31.2097 27.4694C30.7635 27.4694 30.3637 27.1007 30.3637 26.6535ZM32.0288 25.4251C31.7965 25.2692 31.7012 25.0427 31.1281 25.0427C30.2874 25.0427 29.6947 25.7274 29.6958 26.5439C29.6979 27.9135 31.1007 28.4092 31.8497 27.8392C31.9287 27.7792 31.9588 27.7376 32.0288 27.6907V27.9909H32.6836V24.0329C32.6836 23.898 32.4687 23.9507 32.1105 23.9507C31.9888 23.9507 32.0272 24.1208 32.0283 24.2509L32.0288 25.4251Z" fill="#919191"/>
<path fill-rule="evenodd" clip-rule="evenodd" d="M24.5765 26.6533C24.5765 26.2714 24.6413 25.8774 25.0775 25.7078C25.6658 25.4792 26.2685 25.8695 26.2685 26.4621V26.6533C26.2685 27.1005 25.8687 27.4693 25.4225 27.4693C24.9763 27.4693 24.5765 27.1005 24.5765 26.6533ZM25.3408 28.0724C25.8913 28.0724 26.0298 27.8317 26.2416 27.6905V27.9908H26.8964V25.1247H26.2416V25.4249C26.0093 25.269 25.914 25.0425 25.3408 25.0425C24.0218 25.0425 23.4577 26.6607 24.2963 27.6152C24.4991 27.8459 24.9178 28.0724 25.3408 28.0724Z" fill="#919191"/>
<path fill-rule="evenodd" clip-rule="evenodd" d="M7.84262 27.4719C6.68586 27.4719 6.6611 25.643 7.84262 25.643C8.77446 25.643 8.98727 26.9931 8.21188 27.3771C8.14498 27.4103 7.9248 27.4719 7.84262 27.4719ZM6.31396 26.4621V26.6533C6.31396 27.6362 7.36801 28.3574 8.25244 27.9634C8.50792 27.8496 8.51266 27.7716 8.63434 27.6905V27.9908H9.28963V25.1247H8.63434V25.4249C8.41521 25.2779 8.352 25.0425 7.70619 25.0425C7.3048 25.0425 6.93396 25.2527 6.72958 25.4576C6.52678 25.6604 6.31396 26.0649 6.31396 26.4621Z" fill="#919191"/>
<path fill-rule="evenodd" clip-rule="evenodd" d="M16.9879 25.6157C17.2171 25.6157 17.4009 25.6747 17.5268 25.8143C17.6127 25.9086 17.7212 26.1309 17.7249 26.2984H16.2784C16.2784 25.9254 16.6108 25.6157 16.9879 25.6157ZM15.5957 26.4622C15.5957 28.0583 17.0301 28.3591 17.9893 27.8455C18.0825 27.7954 18.1616 27.7122 18.2437 27.6906C18.2295 27.5215 18.0156 27.3666 17.9709 27.1991C17.9003 27.2155 17.0353 27.8154 16.4754 27.2476C16.2873 27.0574 16.3284 26.951 16.251 26.7898H18.3802C18.3838 26.6329 18.4218 26.6476 18.3923 26.4506C18.3723 26.3147 18.3765 26.2378 18.3464 26.1135C18.0472 24.8619 16.6239 24.7871 15.9908 25.4645C15.7943 25.6752 15.5957 26.0698 15.5957 26.4622Z" fill="#919191"/>
<path fill-rule="evenodd" clip-rule="evenodd" d="M9.99966 25.8616C9.99966 26.1571 9.99176 26.2872 10.2378 26.5243C10.7171 26.9873 11.7738 26.7049 11.7738 27.1716C11.7738 27.5651 10.9668 27.5351 10.5823 27.4082C10.4964 27.3797 10.4464 27.3586 10.3726 27.3176C10.2899 27.2707 10.2562 27.2238 10.1635 27.199C10.0876 27.3428 9.89853 27.6199 9.89062 27.7179C9.98281 27.7421 10.0608 27.8127 10.1377 27.8527C10.6413 28.1151 11.462 28.1583 11.984 27.8728C12.5681 27.553 12.7046 26.5659 11.7037 26.3141C11.3329 26.2208 10.655 26.2303 10.655 25.9432C10.655 25.7009 10.9515 25.6156 11.2007 25.6156C11.5578 25.6156 11.866 25.7368 12.1014 25.8616C12.1941 25.6862 12.2832 25.515 12.3748 25.3427C11.9113 25.0978 11.6795 25.0425 11.0916 25.0425C10.5844 25.0425 9.99966 25.3638 9.99966 25.8616Z" fill="#919191"/>
<path fill-rule="evenodd" clip-rule="evenodd" d="M13.4394 25.0425C13.4394 25.1794 13.2065 25.1246 12.8389 25.1246V25.6977H13.4394V27.199C13.4394 28.0492 14.3828 28.2936 15.2135 27.8543C15.2003 27.6936 15.0887 27.475 15.0497 27.308C14.8985 27.3207 14.0667 27.8058 14.0667 26.9261V25.6977H15.1045V25.1246H14.0667V24.2507H13.4394V25.0425Z" fill="#919191"/>
<path fill-rule="evenodd" clip-rule="evenodd" d="M21.0273 26.4894C21.0273 28.0533 22.6092 28.3847 23.471 27.8137C23.5484 27.7626 23.4973 27.7705 23.5932 27.7447C23.5853 27.6472 23.3951 27.368 23.3203 27.2263C23.205 27.2358 23.0222 27.3807 22.8352 27.4239C21.2238 27.7968 21.3534 25.1372 22.9695 25.7208C23.1196 25.7746 23.1771 25.8552 23.3203 25.8889C23.3646 25.7219 23.5495 25.5575 23.5932 25.37C23.5015 25.3216 23.4968 25.3015 23.4115 25.2515C22.8273 24.9117 21.9481 24.9771 21.4703 25.4585C21.2054 25.7261 21.0273 26.0685 21.0273 26.4894Z" fill="#919191"/>
<path fill-rule="evenodd" clip-rule="evenodd" d="M28.3154 25.4249V25.1246H27.6875V27.9907H28.3428V26.2161C28.3428 25.9906 28.5003 25.7667 28.6694 25.6967C28.8732 25.6119 29.1551 25.6435 29.3252 25.7251C29.3916 25.5866 29.4774 25.2916 29.5164 25.1246C29.213 24.9787 28.7215 25.0092 28.4502 25.2868C28.3981 25.3406 28.3807 25.3811 28.3154 25.4249Z" fill="#919191"/>
<path fill-rule="evenodd" clip-rule="evenodd" d="M19.6626 25.4249V25.1247H19.0347V27.9908H19.6626V26.3525C19.6626 25.968 19.8527 25.643 20.2357 25.643C20.4074 25.643 20.538 25.6936 20.6724 25.7252C20.6803 25.6303 20.8251 25.2042 20.8636 25.1247C20.7487 25.0693 20.5328 25.0425 20.3721 25.0425C20.0165 25.0425 19.828 25.2342 19.6626 25.4249Z" fill="#919191"/>
<path fill-rule="evenodd" clip-rule="evenodd" d="M33.7213 28.0722C33.49 28.0722 33.5027 27.8905 33.5027 27.7993C33.5027 27.6213 33.9119 27.5465 33.9119 27.8541C33.9119 27.9705 33.8282 28.0722 33.7213 28.0722ZM33.6491 28.127H33.6117C33.5242 28.1264 33.4221 27.9911 33.4073 27.8952C33.3509 27.5212 33.9941 27.4374 33.9941 27.8267C33.9941 28.1138 33.8329 28.1264 33.6491 28.127Z" fill="#919191"/>
<path fill-rule="evenodd" clip-rule="evenodd" d="M33.6661 27.772H33.7478V27.8268H33.6661V27.772ZM33.5845 27.9906H33.6661V27.9085C33.7557 27.9685 33.704 27.9801 33.8299 27.9906C33.7098 27.8115 33.8247 27.9754 33.8299 27.7446L33.5845 27.7178V27.9906Z" fill="#919191"/>
</svg>
