<svg width="45" height="15" viewBox="0 0 45 15" fill="none" xmlns="http://www.w3.org/2000/svg">
<path d="M19.0288 8.61707H0.711426V14.7192H19.0288V8.61707Z" fill="#919191"/>
<path d="M19.0288 0.290405H0.711426V6.39801H19.0288V0.290405Z" fill="#919191"/>
<path d="M37.3466 13.4791L37.265 13.4954C36.9822 13.5498 36.8789 13.5715 36.6722 13.5715C36.1936 13.5715 35.628 13.3268 35.628 12.1738C35.628 11.581 35.7259 10.7924 36.6178 10.7924H36.6233C36.7755 10.8033 36.9496 10.8196 37.2759 10.9175L37.3466 10.9392V13.4791ZM37.4934 7.73043L37.3466 7.75762V9.88957L37.2161 9.8515L37.178 9.84063C37.0312 9.79712 36.694 9.69922 36.3676 9.69922C34.5838 9.69922 34.2085 11.048 34.2085 12.1792C34.2085 13.7293 35.0787 14.6212 36.5961 14.6212C37.2378 14.6212 37.711 14.5559 38.1896 14.3982C38.6301 14.2568 38.7878 14.0556 38.7878 13.6259V7.50745C38.3636 7.58359 37.9231 7.65973 37.4934 7.73043Z" fill="#919191"/>
<path d="M42.649 13.5174L42.5729 13.5391L42.3009 13.6098C42.0453 13.6751 41.8169 13.7132 41.6429 13.7132C41.2241 13.7132 40.9739 13.5065 40.9739 13.153C40.9739 12.9246 41.0772 12.5384 41.7625 12.5384H42.649V13.5174ZM42.0236 9.67224C41.4743 9.67224 40.9086 9.77014 40.2071 9.98768L39.7502 10.1236L39.9025 11.157L40.3485 11.0102C40.8162 10.8579 41.3981 10.76 41.8332 10.76C42.029 10.76 42.6273 10.76 42.6273 11.4072V11.69H41.7951C40.2778 11.69 39.5762 12.174 39.5762 13.2128C39.5762 14.0993 40.2234 14.6323 41.3111 14.6323C41.6483 14.6323 42.116 14.567 42.5185 14.4691L42.5402 14.4637L42.562 14.4691L42.698 14.4909C43.1222 14.567 43.5627 14.6432 43.9924 14.7247V11.331C43.9924 10.2324 43.3288 9.67224 42.0236 9.67224Z" fill="#919191"/>
<path d="M32.0816 13.5174L32.0055 13.5391L31.7336 13.6098C31.4779 13.6751 31.255 13.7132 31.0755 13.7132C30.6567 13.7132 30.4065 13.5065 30.4065 13.153C30.4065 12.9246 30.5099 12.5384 31.1897 12.5384H32.0762V13.5174H32.0816ZM31.4616 9.67224C30.9069 9.67224 30.3467 9.77014 29.6451 9.98768L29.1883 10.1236L29.3405 11.157L29.7865 11.0102C30.2542 10.8579 30.8362 10.76 31.2713 10.76C31.4671 10.76 32.0653 10.76 32.0653 11.4072V11.69H31.2332C29.7158 11.69 29.0088 12.174 29.0088 13.2128C29.0088 14.0993 29.656 14.6323 30.7492 14.6323C31.0864 14.6323 31.5541 14.567 31.9565 14.4691L31.9783 14.4637L32 14.4691L32.1306 14.4909C32.5602 14.567 32.9953 14.6432 33.425 14.7302V11.3365C33.4304 10.227 32.7669 9.67224 31.4616 9.67224Z" fill="#919191"/>
<path d="M26.3549 9.68281C25.6642 9.68281 25.0931 9.91123 24.881 10.0091L24.8266 10.0363L24.7777 9.99825C24.484 9.78614 24.0543 9.67737 23.4561 9.67737C22.9285 9.67737 22.4336 9.75351 21.8952 9.91123C21.4329 10.0526 21.2534 10.2756 21.2534 10.6944V14.5722H22.7001V10.9881L22.7708 10.9663C23.0645 10.8684 23.2385 10.8521 23.4071 10.8521C23.8259 10.8521 24.038 11.0751 24.038 11.5102V14.5776H25.4629V11.4504C25.4629 11.2655 25.4249 11.1567 25.4194 11.1349L25.3705 11.0425L25.4684 10.999C25.6859 10.9011 25.9252 10.8521 26.1754 10.8521C26.4636 10.8521 26.8063 10.9663 26.8063 11.5102V14.5776H28.2258V11.3688C28.2258 10.2321 27.6166 9.68281 26.3549 9.68281Z" fill="#919191"/>
<path d="M41.5825 4.27138C41.3704 4.27138 41.0169 4.24962 40.7395 4.19524L40.658 4.17892V2.08504C40.658 1.911 40.6253 1.80223 40.6199 1.78591L40.5764 1.69889L40.6688 1.66082C40.6906 1.64995 40.7124 1.64451 40.7395 1.63363L40.7559 1.62275C40.7885 1.61188 40.8211 1.601 40.8538 1.59012C40.8701 1.58468 40.881 1.57924 40.8918 1.57924C41.2127 1.49223 41.5064 1.5031 41.6369 1.49223H41.6424C42.5289 1.49223 42.6322 2.28083 42.6322 2.87364C42.6268 4.02664 42.0557 4.27138 41.5825 4.27138ZM41.5771 0.290283C41.5662 0.290283 41.5499 0.290283 41.539 0.290283C40.7069 0.290283 39.853 0.518708 39.5485 0.964677C39.3853 1.18222 39.2929 1.45416 39.2874 1.77504V3.93418C39.2874 4.11909 39.2494 4.1898 39.2439 4.20611L39.195 4.29857H36.5681V2.7975H36.5627C36.53 1.21485 35.5946 0.34467 34.2404 0.34467H34.0826H32.9188C32.8644 0.730814 32.8209 1.00275 32.7665 1.38889H34.0826C34.7733 1.38889 35.1377 1.97627 35.1377 2.87908V4.39103L35.0453 4.34208C35.029 4.33664 34.9148 4.29857 34.7353 4.29857H32.4619C32.4184 4.58682 32.364 4.96208 32.3042 5.33735H39.2929C39.5322 5.2884 39.8095 5.24489 40.0488 5.20682C40.4024 5.38086 41.0604 5.47332 41.5118 5.47332C43.0292 5.47332 44.0136 4.45629 44.0136 2.88996C44.0082 1.33994 43.0564 0.322915 41.5771 0.290283Z" fill="#919191"/>
<path d="M29.3244 5.97378H29.3896C30.907 5.97378 31.614 5.47343 31.614 4.23885C31.614 3.35235 30.9669 2.64533 29.8791 2.64533H28.4814C28.0626 2.64533 27.8124 2.40603 27.8124 2.00357C27.8124 1.73164 27.9158 1.39444 28.601 1.39444H31.6576C31.7228 0.99742 31.7555 0.747241 31.8153 0.35022H28.6391C27.1598 0.35022 26.4147 0.970226 26.4147 2.00357C26.4147 3.02604 27.0619 3.55902 28.1496 3.55902H29.5474C29.9661 3.55902 30.2163 3.89078 30.2163 4.23885C30.2163 4.46728 30.113 4.94044 29.4332 4.94044H29.1993L24.7233 4.92956H23.9075C23.2168 4.92956 22.7327 4.53798 22.7327 3.62973V3.00428C22.7327 2.05796 23.108 1.47058 23.9075 1.47058H25.2345C25.2943 1.06812 25.3324 0.812505 25.3868 0.431799H23.7334H23.5757C22.2215 0.431799 21.286 1.34005 21.2534 2.9227V2.98253V3.62973C21.286 5.21237 22.2215 5.96835 23.5757 5.96835H23.7334H24.8973L27.323 5.97378H28.7696H29.3244Z" fill="#919191"/>
</svg>
